<?xml version="1.0" standalone="no"?>
<!DOCTYPE svg PUBLIC "-//W3C//DTD SVG 1.1//EN" "http://www.w3.org/Graphics/SVG/1.1/DTD/svg11.dtd" >
<svg xmlns="http://www.w3.org/2000/svg">
<metadata></metadata>
<defs>
<font id="CarlsbergSansBlack" horiz-adv-x="1275" >
<font-face units-per-em="2048" ascent="1638" descent="-410" />
<missing-glyph horiz-adv-x="587" />
<glyph horiz-adv-x="0" />
<glyph horiz-adv-x="2048" />
<glyph unicode=" " horiz-adv-x="587" d="M0 0v2v-2z" />
<glyph unicode="!" horiz-adv-x="573" d="M84 0v322h405v-322h-405zM88 535v989h270l84 -11q25 -8 35 -36l8 -76v-991h-270l-84 10q-25 8 -35 39z" />
<glyph unicode="&#x22;" horiz-adv-x="980" d="M63 1524h240q139 0 129 -115l-39 -594h-184q-61 0 -90 34t-33 105zM549 1524h237q70 0 103 -28t29 -87l-41 -592v-2h-185q-57 0 -88 33q-29 33 -33 106z" />
<glyph unicode="#" horiz-adv-x="1568" d="M43 248v321h248l63 258h-168v320h246l70 260l22 70l31 36l63 11h263l-95 -377h222l65 260l21 70q8 23 32 36l64 11h268l-96 -377h166v2v-322h-246l-63 -258h165v-321h-247l-76 -293l-21 -70l-32 -37l-64 -10h-260l100 410h-221l-74 -293l-22 -70l-31 -37l-65 -10h-262 l104 410h-170zM645 569h219l64 258h-221z" />
<glyph unicode="$" horiz-adv-x="1232" d="M63 43l50 336l233 -39l203 -12q117 4 159 46t39 105.5t-57 89.5q-55 29 -149 43l-23 4l-39 9l-37 6q-186 37 -280 137t-94 285q0 88 30 184q35 96 115 173t221 114v188h242l84 -10q25 -8 35 -37l6 -76v-53l162 -33l118 -41l60 -28l-103 -304l-24 -40q-16 -12 -31 -13 l-41 10l-55 35l-94 49q-58 25 -142 27t-128 -39t-45 -105t48 -93t154 -48l55 -10q225 -39 330.5 -138t105.5 -286q0 -243 -151 -370q-84 -76 -232 -109v-236h-239l-84 11q-29 10 -35 39l-8 75v93l-180 22l-129 27z" />
<glyph unicode="%" horiz-adv-x="2109" d="M53.5 1199q-0.5 124 58.5 209q116 165 418 165q294 0 414 -166q55 -80 60 -209q-9 -250 -224 -332q-111 -41 -251 -41q-300 0 -416 166q-59 84 -59.5 208zM309 0l1018 1479l37 34l57 11h361l-56 -78l-960 -1401l-39 -35l-57 -10h-361zM393 1200q0 -153 133 -151 q68 0 103 34q33 35 33 117q0 148 -136 148q-133 4 -133 -148zM1108 349q0 124 59 209q115 165 418 165q294 0 414 -166q55 -80 59 -207q-8 -253 -223 -334q-111 -41 -251 -41q-301 0 -417 166q-59 84 -59 208zM1450 348q0 -151 133 -151q68 0 103 34q33 35 32 117v2 q-1 146 -135 146q-133 4 -133 -148z" />
<glyph unicode="&#x26;" horiz-adv-x="1705" d="M104 459q4 172 127 278l115 74l21 16l8 19l-8 22l-25 19q-72 33 -122 92t-54 168q4 235 194 328q86 45 191 63l203 16l221 -20l145 -39l54 -20l-105 -299q-15 -49 -57 -52l-41 13l-60 32l-65 23l-84 10l-66 -8q-93 -24 -96 -100q4 -76 55 -97l136 -20h34v-315h-39 l-118 -15q-123 -36 -127 -153q4 -72 43 -110t116 -54l164 -15q156 0 239 46t83 135q-4 59 -27 92l-49 43l-27 12l-28 -29l-66 -88q-23 -40 -26 -82v-2h-195q0 76 41 142l109 133l276 303q63 70 80 114q31 84 26 134h195q2 -66 -16 -129t-86 -148l-72 -84l47 -20l105 -68 q55 -44 100 -123.5t49 -203.5q0 -150 -77 -269q-161 -248 -689 -256q-544 8 -684 240q-72 111 -68 252z" />
<glyph unicode="'" horiz-adv-x="497" d="M63 1524h240q139 0 129 -115l-39 -592v-2h-184q-61 0 -90 34t-33 105z" />
<glyph unicode="(" horiz-adv-x="849" d="M106 676q-4 405 130 647q150 258 509 264v-313q-94 -2 -146 -68.5t-70.5 -198.5t-18.5 -277q0 -238 21.5 -371.5t71.5 -200t142 -72.5v2v-317q-254 4 -392 106t-193 305t-54 494z" />
<glyph unicode=")" horiz-adv-x="849" d="M106 84q92 2 144 68q94 119 90 524q4 397 -90 520q-51 70 -144 76v315q250 -4 392 -104q139 -104 194 -307t53 -494q0 -420 -129 -647q-149 -258 -510 -264v313z" />
<glyph unicode="*" horiz-adv-x="827" d="M43 1155l57 184q12 35 35 41l55 -12l132 -61l-27 217h192q37 0 50 -19q12 -18 6 -57l-19 -139l193 90l63 -182q12 -37 -2 -56q-16 -16 -53 -22l-135 -27l145 -154v3v-3l-153 -116q-33 -23 -54 -14t-39 44l-67 123l-105 -188l-157 111q-29 23 -29 45q0 23 29 51l94 98z " />
<glyph unicode="+" horiz-adv-x="1105" d="M53 395v330h328v332h219l84 -10q25 -8 35 -39l8 -76v-207h326v-330h-326v-332h-221l-84 11q-45 14 -41 114v207h-328z" />
<glyph unicode="," horiz-adv-x="598" d="M84 -217q51 49 80 111l37 106h-103v362h416v-172q2 -174 -61 -310t-205 -242v2v-2z" />
<glyph unicode="-" horiz-adv-x="899" d="M74 395v330h753v-330h-753z" />
<glyph unicode="." horiz-adv-x="583" d="M84 0v362h416v-362h-416z" />
<glyph unicode="/" horiz-adv-x="1075" d="M0 -186l659 1798q30 100 132 98h286l-663 -1798q-30 -100 -133 -98v2v-2h-281z" />
<glyph unicode="0" horiz-adv-x="1466" d="M70 760q0 268 65 443t213.5 263t385.5 88t384 -86q283 -176 279 -708q2 -264 -65 -439.5t-214 -265.5q-147 -86 -384 -86t-385.5 88t-211.5 260q-68 174 -67 443zM506 808q0 -205 14 -298q31 -205 213 -205v2v-2q104 0 153.5 52t61.5 155q16 102 13 250q8 311 -78 405 q-49 55 -150 56q-100 0 -149 -54.5t-60 -128.5q-18 -114 -18 -232z" />
<glyph unicode="1" horiz-adv-x="733" d="M23 1176v348h495l84 -11q25 -8 35 -36l8 -76v-1401h-307l-84 10q-45 14 -41 113v1053h-190z" />
<glyph unicode="2" horiz-adv-x="1241" d="M70 123v258q2 119 44 191.5t101 112.5q63 42 207 116l182 90q72 37 104 73t32 100q-2 140 -222 140l-170 -16l-131 -31l-53 -16l-72 323l64 23l166 43l237 24q381 0 539 -186q84 -102 84 -256.5t-46 -242t-128 -144.5q-84 -55 -177 -102l-174 -84q-79 -36 -116 -65.5 t-37 -78.5v-39h657v-356h-964l-84 10q-25 8 -35 37z" />
<glyph unicode="3" horiz-adv-x="1243" d="M6 66v2l76 325l51 -16l133 -29l176 -16l181 14q66 16 91.5 49t24.5 86q2 78 -90 113q-92 31 -309 31h-25v309h37l209 14q74 12 109 43q31 35 29.5 97.5t-62.5 87.5q-55 27 -164 26l-158 -14l-122 -29l-52 -14l-75 323l65 23l164 41l215 22l223 -18q246 -38 346 -190 q55 -80 56 -205q-8 -210 -177 -295l-22 -17l-8 -24q0 -10 6 -19l20 -16l109 -61q102 -73 113 -267q0 -287 -304 -407q-147 -56 -380 -60l-254 25l-170 43z" />
<glyph unicode="4" horiz-adv-x="1288" d="M49 311v287q0 119 45 207q47 92 117 162t149 131l158 127q76 63 121 135q49 70 49 164h320l84 -8q29 -10 36 -33l9 -74q-7 -171 -201 -324l-176 -131l-137 -106q-55 -51 -97.5 -111.5t-42.5 -134.5v-57h303v213h285l84 -10q25 -8 35 -37l8 -76v-635h-285l-84 10 q-25 8 -34 37l-9 76v65h-612l-84 11q-45 14 -41 112z" />
<glyph unicode="5" horiz-adv-x="1300" d="M53 66v2l78 325l57 -16l152 -31l207 -16q145 4 203 57q57 53 53 137q2 59 -38 99.5t-140 40.5l-146 -7l-129 -12l-82 -6l-84 10q-47 15 -41 113v762h1006v-348h-600v-183l29 4l67 7l74 4q201 -4 312.5 -74t157.5 -176.5t42 -220.5q2 -80 -23 -179q-68 -229 -293 -325 q-127 -53 -333 -58l-287 25l-180 43q-61 20 -62 23z" />
<glyph unicode="6" horiz-adv-x="1359" d="M69.5 653.5q0.5 232.5 59.5 414t193 280.5q125 98 333 139l494 37v-348l-340 -19q-139 -18 -213 -78.5t-84 -183.5l33 23l98 43l172 22l174 -29q88 -27 160 -90q74 -59 118 -151.5t44 -225.5v-2q0 -160 -76 -277q-150 -229 -537 -239q-430 8 -563 305 q-66 147 -65.5 379.5zM506 498q8 -189 188 -197q100 4 146.5 55t46.5 133q0 183 -193 183q-96 0 -142 -46t-46 -128z" />
<glyph unicode="7" horiz-adv-x="1124" d="M29 1176v348h1069v-365q-2 -125 -42 -217t-120 -172l-182 -162q-74 -59 -100 -108q-42 -83 -49 -154.5t-7 -161.5v-184h-305l-84 10q-25 8 -35 37l-8 76v61q-9 285 76 455q49 100 155 178l150 113q61 49 91 96t30 119v31h-639z" />
<glyph unicode="8" horiz-adv-x="1411" d="M49 436q0 165 113 260l108 76l21 16l8 19l-8 20l-25 19q-168 84 -172 272q8 295 299 391q135 45 313 45q374 0 529 -186q78 -94 82 -250q-4 -188 -172 -272l-23 -19l-8 -20l6 -19l21 -16q137 -74 190 -182q29 -62 33 -154q-4 -166 -86 -270q-166 -201 -571 -201 q-406 0 -572 201q-84 104 -86 270zM483.5 466q1.5 -91 63.5 -134q57 -47 160 -43q100 -4 158.5 41t62.5 137q0 188 -221 188q-117 0 -168 -49q-57 -49 -55.5 -140zM530 1104q0 -74 40 -110t135.5 -36t136.5 37q39 37 37 113v2q-1 153 -172 147q-171 4 -177 -153z" />
<glyph unicode="9" horiz-adv-x="1359" d="M49 1051.5q0 146.5 74 263.5q154 231 539 239q527 -9 614 -460q16 -81 14 -179v-2q2 -279 -59 -458q-61 -180 -188.5 -278.5t-337.5 -139.5l-494 -37v348l340 19q137 18 212 77t85 185l-31 -23q-35 -23 -100 -43l-170 -22q-195 0 -336 116q-74 61 -118 154.5t-44 240z M473 1029q0 -87 52 -133t146.5 -44t138.5 46t44 131t-49 140q-51 49 -139 54q-193 -8 -193 -194z" />
<glyph unicode=":" horiz-adv-x="583" d="M84 0v362h416v-362h-416zM84 717v362h416v-362h-416z" />
<glyph unicode=";" horiz-adv-x="583" d="M70 -217q51 49 80 111l36 106h-102v362h416v-172q2 -174 -61.5 -310t-205.5 -242v2v-2zM84 717v362h416v-362h-416z" />
<glyph unicode="&#x3c;" horiz-adv-x="1134" d="M94 428v281l946 370v-266q0 -59 -25.5 -85t-82.5 -38l-391 -117l395 -129q63 -23 86 -49q23 -31 18 -78v-270z" />
<glyph unicode="=" horiz-adv-x="1128" d="M94 172v324h940v2v-326h-940zM94 637v326h940v-326h-940z" />
<glyph unicode="&#x3e;" horiz-adv-x="1134" d="M94 27v266q0 59 25 83t86 40l389 116l-393 127q-61 20 -85 51.5t-22 77.5v269l946 -379v-281z" />
<glyph unicode="?" horiz-adv-x="1191" d="M63 1440l70 33l170 53l250 28q180 0 309 -51q135 -49 211 -149t76 -257t-59 -257q-61 -94 -177 -148l-125 -61q-51 -27 -80.5 -68t-29.5 -112v-41h-270l-84 10q-25 8 -35 39l-8 76v20q0 98 65 170t187 133t154 103.5t29 100.5t-52 96t-127 42q-86 -4 -142 -24l-141 -80 l-39 -13q-38 0 -57 54zM276 0v322h406v-322h-406z" />
<glyph unicode="@" horiz-adv-x="2400" d="M74 487q0 213 78 406q76 193 226 341q316 312 879 320q565 -8 828 -262q244 -236 244 -633q-4 -264 -107.5 -408t-287 -201.5t-421.5 -53.5l-53 10q-18 8 -24 29l-15 28l-20 7l-33 -9l-31 -18q-39 -24 -94 -41l-162 -22q-127 0 -229 56q-217 119 -225 451q2 174 64 286 t165 171q104 55 225 55l158 -20l98 -43l29 -16l35 -11q14 0 24 13l15 20q12 18 28 27l60 12h221v-608l4 -49q2 -12 30 -12.5t68.5 32.5t68.5 110t28 203q2 180 -71 315q-153 285 -601 283q-350 0 -576 -196q-247 -207 -245 -572q7 -390 245 -548q111 -78 246 -105l268 -29 l218 19l147 41q57 23 78 37l55 30q40 24 72 0q16 -12 24 -38l78 -273l-61 -18l-160 -39l-229 -37l-267 -19q-469 0 -757 211q-156 115 -245 300t-93 468zM1037.5 496.5q-1.5 -105.5 41.5 -161.5t144 -56l90 12q31 12 37 18l6 10l2 11v321l-2 11l-6 8l-45 20l-76 12 q-84 0 -137 -50t-54.5 -155.5z" />
<glyph unicode="A" horiz-adv-x="1619" d="M0 0l569 1524h418q53 0 84 -25l47 -74l514 -1425v2v-2h-360q-57 0 -86 25t-47 73l-64 168h-530l-68 -168q-23 -49 -51.5 -73.5t-81.5 -24.5h-344zM659 602h306l-148 528z" />
<glyph unicode="B" horiz-adv-x="1437" d="M104 123v1401l361 10l197 2h22q218 0 357 -38q146 -40 214 -134q66 -97 66 -264v-10q0 -135 -64 -193l-77 -63l-25 -19l-8 -20q0 -10 6 -19l23 -18q55 -27 98 -66q39 -41 60 -99t22 -157q0 -174 -64.5 -273t-220.5 -136q-138 -37 -364 -37h-45h-144l-162 4l-125 6l-84 14 q-25 8 -34 35zM526 324h158l168 8q56 8 78 40q20 29 20 83v10l-6 90l-10 51l-16 19l-44 6v2v-2h-348v-307zM526 924h334l39 6l16 18l11 53l6 76q0 57 -19 86q-25 31 -77 39l-162 8h-76l-41 -2h-31v-284z" />
<glyph unicode="C" horiz-adv-x="1370" d="M84 766q4 531 338 709q154 79 355 79h5l262 -30l197 -58l82 -34l-117 -299q-18 -56 -65 -58q-25 0 -45 12l-49 33q-43 35 -111 58l-154 20q-212 0 -250 -284q-8 -64 -9 -189v-8q0 -120 28 -211q29 -94 98 -131q63 -37 176 -37l203 14l160 23l65 14v2v-2l45 -340l-73 -18 l-187 -35l-247 -19q-231 0 -389 77q-318 154 -318 712z" />
<glyph unicode="D" horiz-adv-x="1521" d="M104 123v1409l150 4h375h24q237 0 389 -38q160 -40 246 -128t121 -237q31 -152 31 -371t-33 -370t-119 -236q-86 -90 -246 -129l-413 -39l-140 2l-145 4l-113 6l-84 14q-25 8 -34 35zM535 338l75 -2h74h16q122 0 191 29q72 31 98 124q27 94 27 276.5t-28 276.5t-97 125 q-70 29 -191 29h-16h-82l-67 -4v-854z" />
<glyph unicode="E" horiz-adv-x="1316" d="M104 123v1401h1106v-348h-680v-226h631v-348h-631v-248h703v-354h-1002l-84 10q-25 8 -34 37z" />
<glyph unicode="F" horiz-adv-x="1261" d="M104 123v1401h1106v-348h-682v-226h633v-348h-633v-602h-297l-84 10q-25 8 -34 37z" />
<glyph unicode="G" horiz-adv-x="1507" d="M84 748q0 291 87 466.5t257 260.5q166 79 414 79h6l264 -32l199 -62l86 -37l-123 -301l-27 -45q-14 -14 -37 -14l-34 8l-41 25q-80 59 -147 86q-66 27 -155 27q-2 0 -3 -1q-92 0 -160 -41q-138 -83 -138 -401q0 -164 28 -263t95 -145q70 -41 183 -41l75 11l54 20l22 19 l8 24v469h301l84 -10q25 -8 35 -39l8 -76v-735h-233l-80 16q-23 13 -49 39l-29 25l-22 10l-29 -12l-47 -35l-86 -41l-162 -27q-395 0 -530 332q-70 168 -74 441z" />
<glyph unicode="H" horiz-adv-x="1583" d="M104 123v1401h304l84 -11q25 -8 34 -36l6 -76v-451h521v574h301l84 -11q25 -8 35 -36l6 -76v-1401h-299l-84 10q-25 8 -35 37l-8 76v479h-521v-602h-301l-84 10q-25 8 -34 37z" />
<glyph unicode="I" horiz-adv-x="641" d="M104 123v1401h308l84 -11q25 -8 34 -36l7 -76v-1401h-306l-84 10q-25 8 -34 37z" />
<glyph unicode="J" horiz-adv-x="1009" d="M43 27l47 335l123 -24l106 -8q84 0 119 38t35 113v1043h305l84 -11q25 -8 35 -36l8 -76v-955q-4 -195 -64 -296q-107 -177 -396 -177h-13l-205 15l-135 24z" />
<glyph unicode="K" horiz-adv-x="1546" d="M104 123v1401h304l84 -11q25 -8 34 -36l6 -76v-447h136l270 476q31 57 61 75q26 20 74 20q8 0 17 -1h401l-455 -713l531 -811v2v-2h-424h-10q-48 0 -78 18q-31 20 -66 76l-325 533h-132v-627h-301l-84 10q-25 8 -34 37z" />
<glyph unicode="L" horiz-adv-x="1214" d="M104 123v1401h299l84 -11q25 -8 35 -36l6 -76v-1041h646v-360h-943l-84 10q-25 8 -34 37z" />
<glyph unicode="M" horiz-adv-x="2111" d="M94 0l176 1524h467l72 -19q25 -18 37 -53l24 -86l211 -911l209 1001l15 68h426l79 -19q27 -18 39 -55l17 -86l151 -1362v-2h-278q-61 0 -90 16t-39 53.5t-17 90.5l-67 815l-211 -975h-412q-86 0 -108 72l-25 86l-184 819l-72 -817l-14 -94q-10 -35 -39 -52l-90 -14h-277z " />
<glyph unicode="N" horiz-adv-x="1654" d="M104 123v1401h443q63 0 104 -25q41 -29 74 -82l61 -112l101 -197l110 -231l101 -222l63 -166v1035h264l84 -11q25 -8 35 -36l6 -76v-1401h-424q-114 0 -178 111l-250 471l-120 252q-61 133 -76 186v-1020h-271l-84 10q-25 8 -34 37z" />
<glyph unicode="O" horiz-adv-x="1626" d="M84 760.5q0 403.5 180 597.5q178 197 549 197h2q373 0 551 -197q176 -199 176 -598t-176 -598q-178 -197 -551 -197t-552 196t-179 599.5zM524 760q0 -318 127 -404q66 -41 162 -41v2v-2q104 0 170 41t94.5 140.5t28.5 263.5q0 328 -125 405q-66 43 -166 43t-165 -40 q-126 -78 -126 -408z" />
<glyph unicode="P" horiz-adv-x="1355" d="M104 123v1407l156 4l174 2h215h20q230 0 370 -45q147 -47 211 -162q65 -116 65 -314q-1 -193 -61 -309t-206 -165t-399 -49h-114v-492h-304l-84 10q-25 8 -34 37zM535 823h139l137 15q49 16 63 55q17 41 17 111v8v14q0 66 -17 104q-14 39 -63 56l-137 12h-72l-67 -4v-371 z" />
<glyph unicode="Q" horiz-adv-x="1626" d="M262 1359q177 195 547 195h4q373 0 551 -195.5t178 -582.5t-155 -585t-474 -222q94 -17 158 -45l137 -53q68 -25 144 -25l92 13l59 24l23 13l67 -338l-28 -19l-80 -33l-119 -18q-134 4 -219 35l-172 63q-79 31 -172 35l-94 -12l-60 -25l-22 -12l-68 340l37 22 q37 20 102 37q-313 29 -464 224q-151 194 -151 579q0 388 179 585zM524 760q0 -318 127 -404q66 -41 162 -41v2v-2q104 0 170 41t94.5 140.5t28.5 263.5q0 328 -125 405q-66 43 -166 43t-165 -40q-126 -78 -126 -408z" />
<glyph unicode="R" horiz-adv-x="1423" d="M104 123v1399l281 8l293 4h22q221 0 359 -38q145 -40 211 -142q65 -100 65 -285v-6q0 -223 -143 -299l-25 -19l-6 -20q-4 -10 6 -18l21 -17q55 -27 88 -54.5t49 -82.5l18 -154l15 -399h-299l-82 10q-25 8 -35 37l-8 76l-14 309q-4 57 -23 82q-18 25 -78 25h-289v-539 h-299l-84 10q-25 8 -34 37zM530 836h306l38 6l15 26l20 70l9 74l-13 84q-16 39 -55 59l-127 23h-119l-74 -2v-340z" />
<glyph unicode="S" horiz-adv-x="1222" d="M63 43v2l50 334l67 -14l166 -25l203 -14q117 4 159 47q39 40 39 98v9q-3 64 -57 89q-55 29 -149 43l-62 11l-37 8q-186 37 -280 137t-94 285q0 82 26 170q59 193 262 278q106 43 287 47l252 -28q130 -33 176 -54l70 -32l-103 -304l-24 -38q-15 -15 -34 -15q-17 0 -38 13 q-11 4 -49.5 29.5t-85.5 46.5q-68 32 -164 36q-80 -4 -122 -43q-43 -40 -43 -107q0 -63 48 -91q49 -29 154 -48l55 -10q229 -41 332.5 -141t103.5 -283v-17q0 -118 -50 -226q-120 -256 -562 -263l-242 19l-182 33z" />
<glyph unicode="T" horiz-adv-x="1398" d="M20 1176v348h1358v-348h-460v-1176h-308l-84 10q-41 13 -41 104v9v1053h-465z" />
<glyph unicode="U" horiz-adv-x="1517" d="M84 610v914h301l84 -11q25 -8 35 -36l6 -76v-764q0 -111 19 -181q38 -137 237 -137l106 11l72 24l41 27l6 25v1118h297l84 -11q25 -8 35 -36l8 -76v-1401h-205l-80 16l-79 64l-25 8l-29 -8l-43 -23q-59 -35 -118 -57l-166 -25h-8q-296 0 -436 149q-142 151 -142 486z" />
<glyph unicode="V" horiz-adv-x="1560" d="M-20 1524h319q70 0 113 -27t67 -90l295 -946l293 946q46 117 182 117h324l-529 -1524v2v-2h-378q-68 0 -121 29q-49 31 -74 96z" />
<glyph unicode="W" horiz-adv-x="2211" d="M-12 1524h340l82 -15q29 -16 39 -51l22 -92l172 -926l176 1084h453l84 -17q25 -14 39 -51l18 -90l154 -928l170 928l20 92q14 37 39 51l86 15h332l-381 -1522v-2h-451q-59 0 -86 14q-25 14 -39 52l-18 92l-141 927l-183 -1085h-446q-53 0 -80 18q-25 14 -39 52l-24 88z " />
<glyph unicode="X" horiz-adv-x="1531" d="M0 0l504 760l-504 764h426l63 -11l35 -34l238 -400l229 400l37 34l64 11h426l-492 -758l506 -766v2v-2h-428q-53 0 -80 25l-53 73l-207 351l-205 -351l-53 -73q-29 -25 -80 -25h-426z" />
<glyph unicode="Y" horiz-adv-x="1456" d="M-25 1524h361l98 -19q35 -20 64 -80l241 -526l240 522q29 61 63 83q32 20 87 20h10h338l-533 -1028v-496h-299l-84 10q-25 8 -35 37l-8 76v356z" />
<glyph unicode="Z" horiz-adv-x="1292" d="M63 0v178q0 72 56 162l514 836h-557v348h1116v-187l-16 -88l-39 -71l-256 -412l-263 -412h592v-354h-1147z" />
<glyph unicode="[" horiz-adv-x="788" d="M127 -104v1691h557v-315h-160v-1186h160v-315h-432l-84 10q-45 14 -41 115z" />
<glyph unicode="\" horiz-adv-x="1120" d="M0 1710h307q102 0 131 -98l682 -1798v2v-2h-307q-104 0 -133 98z" />
<glyph unicode="]" horiz-adv-x="788" d="M104 86h160v1186h-160v315h433l84 -10l34 -39l9 -76v-1691h-560v315z" />
<glyph unicode="^" horiz-adv-x="1560" d="M84 729l590 807h233l570 -807v2v-2h-414l-285 416l-301 -416h-393z" />
<glyph unicode="_" horiz-adv-x="1331" d="M-20 -45h1374v-244h-1374v244z" />
<glyph unicode="`" horiz-adv-x="897" d="M43 1524h365l67 -6l64 -39l317 -281v2v-2h-287l-71 10q-27 8 -64 35z" />
<glyph unicode="a" d="M53 537q4 201 68 324.5t166 180.5q104 61 227 62l160 -25l100 -47l31 -20l35 -13q14 2 22 15l15 24l28 29l62 12h225v-1079h-225l-62 12q-18 10 -28 29l-15 25l-22 14l-35 -12l-31 -21q-35 -23 -100 -47l-160 -25q-123 0 -229 60q-102 61 -168 184q-59 123 -64 318z M471 548v-10q0 -111 43 -167q45 -59 145 -60l91 17l36 20l9 12v361l-9 10l-45 23l-75 14h-12q-76 0 -126 -49q-54 -53 -57 -171z" />
<glyph unicode="b" d="M84 0v1524h270l88 -11q27 -8 33 -36l6 -76v-336l4 -33q6 -10 17 -10l14 2l19 10q51 31 110 49l117 21q123 0 229 -60q102 -61 168 -184q59 -123 64 -317q-4 -200 -68 -324.5t-166 -181.5q-104 -61 -227 -62l-160 25q-66 25 -100 47l-31 21l-35 12l-22 -14l-15 -25 l-28 -29l-62 -12h-225zM481 358l8 -10q16 -12 46 -22l75 -15h12q76 0 126 48q54 51 56 171v16q0 108 -40 163q-47 59 -148 59l-90 -16l-37 -21l-8 -12v-361z" />
<glyph unicode="c" horiz-adv-x="1085" d="M53 532q0 193 74 319t207 186t301 61l201 -23l149 -43l59 -22l-81 -222l-33 -59q-23 -23 -48 -23q-41 1 -65 15l-45 22l-61 19l-70 8h-6q-78 0 -121 -52q-45 -54 -47 -175v-11q0 -113 41 -172q45 -61 154 -61l180 18l157 31v2v-2l33 -315l-168 -33l-125 -18l-123 -7 q-262 0 -413 134q-145 135 -150 423z" />
<glyph unicode="d" d="M53 537q4 201 68 324.5t168 180.5q104 61 227 62l117 -21l108 -49l19 -10l14 -2l17 10l4 33v459h270l88 -11q27 -8 33 -36l6 -76v-1401h-225l-62 12q-18 10 -28 29l-15 25l-22 14l-35 -12l-31 -21q-35 -23 -100 -47l-160 -25q-123 0 -229 60q-102 61 -168 184 q-59 123 -64 318zM471 548v-10q0 -111 43 -167q45 -59 145 -60l91 17l36 20l9 12v361l-9 10l-45 23l-75 14h-12q-76 0 -126 -49q-54 -53 -57 -171z" />
<glyph unicode="e" horiz-adv-x="1230" d="M53 527.5q0 189.5 75 317.5q148 253 515 261q325 0 457 -178q66 -90 69 -240q-6 -137 -64 -202q-56 -64 -153 -85l-153 -24l-176 -6l-109 2l-49 2q10 -66 70 -90l194 -21l174 12l139 25l56 12l35 -286l-222 -37l-225 -15q-429 0 -561 236q-72 127 -72 316.5zM457 598h78 l67 2l100 6q44 9 62 23l27 30l10 46q0 49 -33 81q-33 33 -118 33t-137 -55.5t-56 -163.5v-2z" />
<glyph unicode="f" horiz-adv-x="878" d="M23 799v280h147v99v16q0 189 92 274q96 88 311 88l172 -12l136 -31l-27 -292l-57 12l-133 10q-57 0 -83 -27q-24 -24 -24 -59v-6v-72h283v-280h-273v-799h-270l-84 10q-25 8 -35 37l-8 76v676h-147z" />
<glyph unicode="g" d="M53 537q4 201 68 324.5t166 180.5q104 61 227 62l160 -25l100 -47l31 -20l35 -13q14 2 22 15l15 24l28 29l62 12h225v-1052q-4 -258 -142 -379t-380 -121l-199 27q-146 50 -223 116l-27 27l178 207l27 -23q25 -16 82 -37l135 -20q72 0 113 35t41 102v53l-6 33l-17 10 l-14 -2l-19 -10q-53 -31 -110 -49l-117 -21q-123 0 -229 60q-102 61 -168 184q-59 123 -64 318zM471 548v-10q0 -111 43 -167q45 -59 145 -60l91 17l36 20l9 12v361l-9 10l-45 23l-75 14h-12q-76 0 -126 -49q-55 -53 -57 -171z" />
<glyph unicode="h" horiz-adv-x="1234" d="M84 123v1401h270l84 -11l35 -36l8 -76v-336l4 -33q6 -10 17 -10l14 2l19 10q51 31 110 49l117 21h14q233 0 328 -160q55 -92 59 -270v-674h-270l-84 10q-25 8 -35 37l-8 76v504q0 84 -37 114q-40 27 -102 27h-9l-92 -16l-37 -21l-8 -12v-719h-270l-84 10q-25 8 -35 37z " />
<glyph unicode="i" horiz-adv-x="563" d="M82 1202v322h401v-322h-401zM84 123v956h270l84 -10l35 -37l8 -76v-956h-270l-84 10q-25 8 -35 37z" />
<glyph unicode="j" horiz-adv-x="591" d="M-104 -442l26 290l33 -4l70 -4q86 0 88 94v1145h270l84 -10q25 -8 35 -37l6 -76v-1065v-9q0 -171 -77 -262q-79 -93 -261 -93l-135 8l-101 12l-38 9v2zM111 1202v322h399v-322h-399z" />
<glyph unicode="k" horiz-adv-x="1245" d="M82 123v1401h270l84 -11l35 -36l8 -76v-641h94l121 237q20 41 64 64l84 18h350l-297 -485l352 -594v2v-2h-344l-82 14q-41 18 -67 68l-181 330h-94v-412h-268l-84 10q-29 8 -37 37z" />
<glyph unicode="l" horiz-adv-x="706" d="M84 340v1184h270l84 -11l35 -36l8 -76v-1018q-1 -6 -1 -13q0 -33 18 -55q21 -26 68 -26h3l68 4l35 4v2v-2l24 -293l-39 -8l-98 -12l-137 -9q-180 -1 -260 93q-78 91 -78 263v9z" />
<glyph unicode="m" horiz-adv-x="1873" d="M84 123v956h225l62 -12l28 -29l15 -24l22 -13l35 11l31 20l94 47l145 25l144 -17l92 -36l47 -31l18 -19q8 -8 23 -12l33 12l28 21q31 23 104 51.5t173 30.5h14q233 0 328 -160q53 -94 57 -270v-674h-270l-84 10q-25 8 -35 37l-8 76v504q0 85 -38 113q-36 27 -91 26h-8 l-76 -14l-43 -23l-6 -10l-2 -10v-709h-271l-84 10q-41 13 -41 104v9v504q-5 85 -41 113q-34 26 -90 26h-8l-74 -14l-43 -23l-8 -10v-719h-270l-84 10q-25 8 -35 37z" />
<glyph unicode="n" horiz-adv-x="1234" d="M84 123v956h225l62 -12l28 -29l15 -24l22 -15l35 13l31 20q35 23 100 47l160 25h14q233 0 328 -160q55 -92 59 -270v-674h-270l-84 10q-25 8 -35 37l-8 76v504q0 84 -37 114q-40 27 -102 27h-9l-92 -16l-37 -21l-8 -12v-719h-270l-84 10q-25 8 -35 37z" />
<glyph unicode="o" horiz-adv-x="1308" d="M53 543q4 274 158 416.5t444 146.5q184 0 319.5 -66t209.5 -190q69 -125 73 -311q-4 -274 -158.5 -416.5t-443.5 -147.5q-184 0 -319 66q-283 138 -283 502zM465 541q0 -117 43 -179q45 -61 147 -61q189 0 189 230v10v2v7q0 230 -189 230q-102 0 -146 -61t-44 -178z" />
<glyph unicode="p" horiz-adv-x="1259" d="M84 -250v1329h225l62 -12l28 -29l15 -24l22 -15l35 13l31 20q35 23 100 47l160 25q123 0 229 -60q102 -61 168 -184q59 -123 64 -317q-4 -200 -68 -324.5t-168 -181.5q-104 -61 -227 -62l-117 21q-53 16 -108 49l-19 10l-14 2l-17 -10l-4 -33v-389h-270l-88 10 q-27 8 -33 37t-6 78zM481 358l8 -10q16 -12 46 -22l75 -15h12q76 0 126 48q53 52 56 171v16q0 108 -40 163q-47 59 -148 59l-90 -16l-37 -21l-8 -12v-361z" />
<glyph unicode="q" d="M53 537q4 201 68 324.5t166 180.5q104 61 227 62l160 -25l100 -47l31 -20l35 -13q14 2 22 15l15 24l28 29l62 12h225v-1454h-270l-88 10q-27 8 -33 37t-6 78v264l-4 33l-17 10l-14 -2l-19 -10q-53 -31 -110 -49l-117 -21q-123 0 -229 60q-102 61 -168 184 q-59 123 -64 318zM471 548v-10q0 -111 43 -167q45 -59 145 -60l91 17l36 20l9 12v361l-9 10l-45 23l-75 14h-12q-76 0 -126 -49q-55 -53 -57 -171z" />
<glyph unicode="r" horiz-adv-x="854" d="M84 123v956h225l62 -12l28 -29l15 -24l22 -13l35 11l31 20l92 47l154 25l49 -4l22 -4v-361l-51 17l-123 14l-108 -14l-48 -23l-8 -10v-719h-270l-84 10q-25 8 -35 37z" />
<glyph unicode="s" horiz-adv-x="1046" d="M32 733q0 100 48 182q45 82 168 136q107 49 334 53l217 -25l198 -53l-94 -250q-24 -57 -65 -57l-33 8q-18 6 -37 18l-88 35l-105 15l-108 -17q-35 -16 -36 -49t34 -45l131 -22q290 -37 371 -152q43 -66 43 -172q0 -178 -138.5 -270t-406.5 -93l-207 15l-217 37v2l33 311 l178 -35l227 -18l103 14q29 16 26 51v6q0 32 -43 41l-147 27q-114 16 -203.5 46t-135.5 92q-47 64 -47 169z" />
<glyph unicode="t" horiz-adv-x="964" d="M53 799v280h150v193l395 84v-277h270v-280h-270v-418q0 -39 26 -66q25 -26 77 -26h4l129 10l53 12v2v-2l26 -293l-137 -30l-172 -13q-215 0 -310 89q-91 85 -91 274v16v445h-150z" />
<glyph unicode="u" horiz-adv-x="1226" d="M74 406v673h270l84 -10q25 -8 35 -37l8 -76v-501q0 -84 35 -115q36 -27 97 -27h9l90 15l37 22l6 12l3 11v706h270l84 -10l35 -37l6 -76v-956h-223q-67 0 -91 41l-14 25q-10 12 -24 12l-35 -10l-29 -21q-37 -25 -98 -47l-158 -25h-11q-92 0 -179 33q-92 35 -148 127 q-55 92 -59 271z" />
<glyph unicode="v" horiz-adv-x="1208" d="M-25 1079h318l84 -12l41 -37l18 -55l160 -598l158 598q6 31 18 55l41 37l86 12h309l-389 -1079v2v-2h-330q-80 0 -114 35q-35 35 -49 82z" />
<glyph unicode="w" horiz-adv-x="1802" d="M-25 1079h283l86 -12l41 -37l18 -55l121 -619l144 723h338l86 -12q29 -16 41 -37l16 -55l117 -619l114 619q6 31 19 55q8 20 41 37l86 12h276l-303 -1079v2v-2h-364l-86 12q-29 16 -41 37l-17 55l-100 619l-131 -723h-363l-86 12q-27 14 -39 37l-20 55z" />
<glyph unicode="x" horiz-adv-x="1226" d="M0 1079h336l84 -14q37 -16 65 -68l129 -254l125 254q25 49 66 68l82 14h336l-316 -540l320 -539v2v-2h-338l-82 14q-41 18 -66 68l-127 256l-125 -256q-29 -51 -65 -68q-40 -14 -75 -14h-9h-338l317 539z" />
<glyph unicode="y" horiz-adv-x="1226" d="M74 406v673h270l84 -10q25 -8 35 -37l8 -76v-501q0 -84 35 -115q36 -27 97 -27h9l90 15l37 22l6 12l3 11v706h270l84 -10l35 -37l6 -76v-929q-4 -258 -141 -379t-381 -121l-197 27q-89 30 -139 59l-84 57l-29 27l178 207l29 -23q29 -18 82 -37l133 -20q72 0 113 35 t43 102v53l-7 33l-16 10l-14 -2l-21 -10q-47 -31 -108 -49l-117 -21h-14q-223 0 -320 160q-55 92 -59 271z" />
<glyph unicode="z" horiz-adv-x="1030" d="M63 0v162q0 95 56 153l338 445h-381v319h880v-170q0 -88 -55 -145l-340 -445h406v-319h-904z" />
<glyph unicode="{" horiz-adv-x="800" d="M63 537v284q57 14 80 51t21 78v371q-10 149 98 223q61 39 184 43h250v-315h-125l-18 -4l-4 -21v-233q2 -104 -17 -183q-23 -74 -92 -110l-22 -16l-8 -25l8 -27l22 -16q70 -37 92 -111q18 -78 17 -182v-233l4 -21l18 -4h125v-315h-250q-135 4 -193 43t-71 85 q-22 81 -18 138v371q2 41 -21 77q-23 37 -80 52z" />
<glyph unicode="|" horiz-adv-x="546" d="M84 -250v1985h254l84 -11q25 -8 35 -38l8 -76v-1985h-254l-84 10q-25 8 -35 39z" />
<glyph unicode="}" horiz-adv-x="800" d="M106 86h125l19 4l4 21v233q-2 104 17 180t91 113l23 16l8 27l-8 25l-23 16q-72 37 -91 112.5t-17 180.5v233l-4 21l-19 4h-125v315h250q123 -4 185 -43q103 -70 98 -223v-371q-2 -41 20 -78q23 -37 80 -51v-284q-57 -14 -80 -52q-23 -37 -20 -77v-371q10 -158 -90 -223 q-57 -39 -193 -43v2v-2h-250v315z" />
<glyph unicode="~" horiz-adv-x="1345" d="M84 358v338q115 66 217 88l170 19q103 -4 168 -29l143 -53l150 -29l104 6q49 10 99.5 32t128.5 71v2v-340q-115 -66 -217 -88l-170 -19q-105 4 -168 29l-144 53q-62 25 -149 29l-105 -6l-100 -31z" />
<glyph unicode="&#xa0;" horiz-adv-x="587" d="M0 0v2v-2z" />
<glyph unicode="&#xa1;" horiz-adv-x="565" d="M84 827v324h405v-324h-405zM88 -250v989h270l84 -10q25 -8 35 -37l8 -76v-991h-270l-84 10q-25 8 -35 39z" />
<glyph unicode="&#xa2;" horiz-adv-x="1085" d="M53 532q8 430 350 531v231h240l84 -10l35 -39l8 -76v-84l139 -28l99 -33l36 -16l-81 -220l-33 -59q-23 -25 -58 -24l-55 14l-45 22l-61 21l-70 8q-82 0 -127 -53t-47 -174t41 -183q47 -59 156 -61l178 18l159 33l31 -317l-158 -31l-116 -16v-222h-242l-84 11 q-25 8 -35 39l-8 75v117q-158 45 -248 176q-88 131 -88 350z" />
<glyph unicode="&#xa3;" horiz-adv-x="1273" d="M53 0v330h180l19 112l4 111v31l-4 45h-164v327h133l-4 54l-2 49q-2 236 131 364.5t416 130.5l250 -22l153 -41l52 -23l-107 -280l-27 -41q-16 -12 -34 -12t-41 14l-58 33l-84 35l-104 12q-76 2 -115 -38t-39 -136l2 -41l4 -58h367v-327h-340l2 -45l2 -64l-6 -94l-12 -96 h626v-330h-1200z" />
<glyph unicode="&#xa4;" horiz-adv-x="1271" d="M84 319l141 138q-51 92 -51 213q0 102 49 215l-139 137l190 199l146 -148l115 41l102 16l106 -12q61 -12 111 -39l143 142l191 -201l-141 -139l38 -105l13 -106q0 -61 -15 -113l-41 -102l146 -136l-191 -198l-141 137q-45 -25 -102 -37l-117 -14l-105 14q-53 14 -112 43 l-146 -143zM449 672q4 -82 55 -134t133 -57v2v-2q80 4 131 56.5t55 134.5q-8 111 -96 159q-41 25 -88 25q-86 -4 -136 -54t-54 -130z" />
<glyph unicode="&#xa5;" horiz-adv-x="1417" d="M43 1524h350l103 -17q39 -20 57 -82l168 -546l166 542q18 63 57 84l105 19h327l-219 -500h156v-303h-287l-63 -141h350v-304h-385v-276h-301l-84 10q-45 14 -41 113v153h-398v304h353l-62 141h-291v303h156z" />
<glyph unicode="&#xa6;" horiz-adv-x="507" d="M84 -250v739h254l84 -10q25 -8 35 -37l8 -75v-742h-254l-84 10q-25 8 -35 39zM84 995v742h254l84 -11q25 -8 35 -38l8 -76v-740h-254l-84 11q-25 8 -35 37z" />
<glyph unicode="&#xa7;" horiz-adv-x="1159" d="M84 -164l55 277l129 -33l140 -29l110 -12q86 0 134 20t48 80q4 35 -27.5 63t-123.5 50q-287 56 -375 192q-47 72 -47 181q0 146 109 276q-80 108 -80 234q0 169 96 276q92 105 266 131q64 10 141 12l172 -18l228 -63l-86 -228q-18 -57 -66 -57l-33 8l-34 18l-86 35 l-92 15q-144 0 -144 -109q0 -55 41 -80q43 -23 121 -41q211 -51 303.5 -139.5t91.5 -235.5v-2q0 -137 -98 -266q88 -88 86 -237q0 -201 -134 -307.5t-411 -106.5l-139 14l-158 35zM487 662q0 -53 39 -80q41 -25 113 -41l27 -9l24 -6l21 52l6 59q0 35 -29 63q-31 27 -92 43 l-70 23l-28 -49z" />
<glyph unicode="&#xa8;" horiz-adv-x="901" d="M43 1227v297h346v-297h-346zM514 1227v297h346v-297h-346z" />
<glyph unicode="&#xa9;" horiz-adv-x="1751" d="M84 760q4 338 227 561q225 225 563 233q227 -4 406.5 -104t281 -279.5t105.5 -410.5q0 -332 -227 -559q-218 -226 -566 -236q-227 2 -405 105q-178 102 -280.5 282t-104.5 408zM279 760q4 -180 79.5 -316.5t209.5 -215.5t306 -83q174 4 307.5 80t211.5 216.5t80 318.5 q-2 178 -80 318t-211 216t-308 80q-172 -4 -306 -81t-211 -215t-78 -318zM492 766q0 150 50 248q97 190 337 190l155 -18l111 -33l41 -16l-56 -162l-14 -25l-22 -4l-27 4l-29 19l-67 35l-88 10q-178 4 -187 -248q0 -139 47 -199q49 -59 160 -55l113 10l129 25l29 -174v-2 l-148 -33l-141 -14q-197 -2 -295 102t-98 340z" />
<glyph unicode="&#xaa;" horiz-adv-x="851" d="M33 1114q4 145 55 235.5t132 132.5t171 42l60 -11l71 -30l33 -8l25 10l41 20l55 4h92v-794h-117l-39 6q-18 4 -38.5 21.5t-34.5 15.5l-43 -17q-33 -20 -66 -26l-76 -6q-74 0 -149 41q-74 43 -121 132t-51 232zM330 1114q0 -149 90 -149l22 2l21 6l12 10l6 21v223l-4 16 l-8 12l-16 9l-27 2q-39 2 -66 -32t-30 -120z" />
<glyph unicode="&#xab;" horiz-adv-x="1490" d="M43 717l293 432q27 41 70 57l100 15h278l-342 -486l353 -524h-306l-98 14q-37 14 -69 66zM676 727l293 422q31 43 69 57l101 15h278l-340 -486l353 -524v2v-2h-308l-98 14q-35 14 -70 66z" />
<glyph unicode="&#xac;" horiz-adv-x="1128" d="M94 397v326h815l84 -10q25 -8 35 -39l6 -76v-453h-219l-84 11q-25 8 -35 39l-8 75v127h-594z" />
<glyph unicode="&#xad;" horiz-adv-x="899" d="M74 395v330h753v-330h-753z" />
<glyph unicode="&#xae;" horiz-adv-x="1751" d="M84 760q4 338 227 561q225 225 563 233q229 -2 408 -104q178 -102 279.5 -280.5t105.5 -409.5q0 -325 -227 -561q-224 -224 -566 -234q-227 2 -404 104.5t-282 280.5q-100 178 -104 410zM279 760q4 -180 79.5 -316.5t209.5 -215.5t306 -83q174 4 307.5 80t211.5 216.5 t80 318.5q-2 178 -80 318t-211 216t-308 80q-172 -4 -306 -81t-211 -215t-78 -318zM559 430v760l88 2l109 4h73l220 -22q152 -37 150 -219q-1 -81 -21.5 -120.5t-59.5 -60.5l-12 -12l-4 -12l4 -9l10 -10q65 -29 70 -78l8 -88l8 -205h-123l-55 9q-16 12 -20 47l-5 157 q-4 43 -20 60q-23 18 -68 18h-155v-291h-129q-37 -2 -54 15q-16 16 -14 55zM756 829h178l27 2l16 7l18 32l6 60v2q1 43 -28 65l-121 21h-53l-43 -2v-187z" />
<glyph unicode="&#xaf;" horiz-adv-x="751" d="M43 1245v228h666v-228h-666z" />
<glyph unicode="&#xb0;" horiz-adv-x="882" d="M63 1190q2 106 50 190q89 166 331 174q170 0 271.5 -89t105.5 -275q-2 -168 -103 -265t-274 -102q-240 0 -331 158q-47 82 -50 209zM338 1190q0 -123 106 -123v2v-2q47 0 75 30t28 92t-28 92t-75 30q-106 0 -106 -121z" />
<glyph unicode="&#xb1;" horiz-adv-x="1189" d="M96 0v324h1000v-324h-1000zM96 700v308h326v237h221l84 -10q25 -8 35 -37l6 -76v-114h328v-308h-328v-237h-219l-84 10q-25 8 -35 37l-8 76v114h-326z" />
<glyph unicode="&#xb2;" horiz-adv-x="825" d="M84 743v131q0 72 27 120t69 79l109 64q94 43 129 68.5t35 52.5t-23 42l-76 15l-98 -10l-80 -19l-33 -10l-53 219l43 16l105 27l137 16l186 -26q175 -58 182 -246q0 -144 -98 -217q-47 -35 -117 -61l-118 -56q-41 -25 -41 -49v-10h364v-236h-557q-63 0 -78.5 19.5 t-13.5 70.5z" />
<glyph unicode="&#xb3;" horiz-adv-x="860" d="M90 700v2l53 213l33 -10l80 -18l100 -10l113 16q31 16 29 49q2 31 -45 43l-152 10h-37v219h45l131 11q39 12 35 42t-29 40l-71 12l-86 -10l-80 -17l-35 -10l-51 215l41 14l102 29l129 14l172 -20q82 -23 137.5 -75t56.5 -131q2 -135 -102 -181l-12 -8l-6 -15l4 -10l14 -8 q82 -41 104 -92t19 -117q0 -115 -100 -185.5t-297 -72.5l-149 16l-105 29q-41 14 -41 16z" />
<glyph unicode="&#xb4;" horiz-adv-x="897" d="M43 1198l315 281q35 29 66 39l70 6h362v2v-2l-389 -281q-37 -27 -66 -35l-69 -10h-289z" />
<glyph unicode="&#xb5;" horiz-adv-x="1226" d="M74 -250v1329h270l84 -10q25 -8 35 -37l8 -76v-501q0 -84 35 -115q39 -29 106 -27l90 15l37 22l6 12l3 11v706h270l84 -10l35 -37l6 -76v-956h-223q-67 0 -91 41l-14 25q-10 12 -24 12l-35 -10l-29 -21q-84 -63 -209 -72l-20 2l-27 5v-357h-270l-88 10q-27 8 -33 37 t-6 78z" />
<glyph unicode="&#xb6;" horiz-adv-x="1464" d="M252 1130q0 154 53 244q55 90 172 128t307 38l183 -2l161 -4v-1722h-90l-32 12q-10 14 -11 37v1546h-123v-1288q4 -219 -79 -281q-47 -37 -129 -37l-76 4l-80 13l10 102l57 -6h27q76 -2 107 42t30 140v602q-176 4 -282.5 47t-155.5 138q-49 94 -49 247z" />
<glyph unicode="&#xb7;" horiz-adv-x="516" d="M45 575v363h416v-363h-416z" />
<glyph unicode="&#xb8;" horiz-adv-x="579" d="M43 -461l31 144q2 18 12 33t41 16l72 -13l34 7q18 8 21 30q6 53 -100 58l39 239l233 6l-16 -145q63 -18 95 -57t32 -117q4 -98 -66 -165t-233 -69l-64 5l-72 8l-59 18v2z" />
<glyph unicode="&#xb9;" horiz-adv-x="555" d="M84 1286v238h297q61 4 77.5 -17.5t14.5 -74.5v-793h-190q-63 0 -78 18q-20 18 -17 72v557h-104z" />
<glyph unicode="&#xba;" horiz-adv-x="835" d="M34 1113q1 194 102 300t288 111q188 0 283.5 -108t97.5 -302q-4 -197 -107 -299q-100 -106 -286 -106t-281 106q-98 104 -97 298zM328 1116q0 -78 20 -113.5t70 -35.5v2v-2q94 0 90 147q4 152 -90 152q-49 0 -69.5 -36t-20.5 -114z" />
<glyph unicode="&#xbb;" horiz-adv-x="1490" d="M63 1221h306l98 -15q37 -14 70 -65l280 -436l-295 -422q-27 -41 -69 -58l-101 -14v2v-2h-278l342 485zM696 1221h308l98 -15q35 -14 69 -65l279 -426l-295 -432q-27 -41 -68 -58l-100 -14h-280l342 485z" />
<glyph unicode="&#xbc;" horiz-adv-x="1818" d="M63 1286v238h295q63 2 78.5 -18.5t14.5 -73.5v-793h-191q-63 0 -78.5 19t-13.5 71v557h-105zM190 -68l906 1528q29 47 62.5 73t90.5 26h260l-909 -1528q-29 -51 -63.5 -75t-90.5 -24h-256zM1057 195v127q2 76 30 141q33 63 76 110l199 183q43 49 47 129h199l78 -15 q20 -16 16 -71t-32 -99.5t-75 -85.5l-215 -163q-45 -45 -49 -97v-22h131v131h180l78 -17q16 -25 15 -73v-373h-181q-59 -4 -76 17t-16 75v12h-313q-59 -4 -78 17q-16 25 -14 74z" />
<glyph unicode="&#xbd;" horiz-adv-x="1943" d="M63 1286v238h295q63 2 78.5 -18.5t14.5 -73.5v-793h-191q-63 0 -78.5 19t-13.5 71v557h-105zM172 -68l905 1528l62 74q37 25 90 25h260l-907 -1528l-64 -74q-37 -25 -90 -25v2v-2h-256zM1202 90v129q0 72 20 107q34 61 76 94l238 131q35 23 35 51.5t-23 44.5l-75 15 l-99 -13l-80 -18l-32 -10l-54 221l43 14l105 29l137 14l186 -25q174 -57 183 -247q0 -80 -25 -129t-74 -86l-116 -62q-82 -35 -121 -58.5t-39 -47.5v-11h364v-233h-557q-61 -4 -77 16q-16 25 -15 74z" />
<glyph unicode="&#xbe;" horiz-adv-x="1953" d="M63 700l52 215l32 -10l80 -18l103 -10l110 16q31 16 29 49q2 31 -43 43l-154 10h-34v219h43l131 11q39 12 34 47q0 23 -26 35l-74 12l-86 -10l-78 -17l-35 -10l-53 215l146 43l127 14l174 -22q82 -20 137 -74q55 -53 55 -132t-26 -118q-27 -39 -76 -61l-13 -8l-6 -15 l4 -10l15 -8q82 -41 102 -90q25 -51 23 -119q0 -115 -99.5 -184.5t-300.5 -73.5l-147 16l-107 29zM381 -68l903 1528q29 47 63 73t91 26h260l-910 -1528q-29 -51 -63.5 -75t-89.5 -24h-254zM1194 195v127q0 137 106 253l95 89q63 43 105 93t46 128h197l78 -15q20 -16 18 -70 t-32 -100.5t-74 -85.5l-215 -163q-47 -45 -52 -97v-22h133v131h181q57 2 78 -17q16 -25 14 -73v-373h-180q-61 -4 -77.5 17t-15.5 75v12h-313q-61 -4 -78 17q-16 25 -14 74z" />
<glyph unicode="&#xbf;" horiz-adv-x="1191" d="M43 59q0 158 61 255t175 149l124 59q47 25 79 68t32 115v38h270l84 -10q25 -8 35 -37l8 -75v-21q0 -98 -66.5 -172t-187 -133t-152.5 -101.5t-29 -100.5t52 -96t127 -42l142 25q53 20 86 47l55 32l39 13q20 0 35 -15l22 -39v2v-2l94 -303l-69 -32q-35 -16 -170 -54 l-250 -28q-180 0 -309 51q-135 49 -211 149t-76 258zM510 831v324h405v-324h-405z" />
<glyph unicode="&#xc0;" horiz-adv-x="1619" d="M0 0l569 1524h418q53 0 84 -25l47 -74l514 -1425h-360q-57 0 -86 25t-47 73l-64 168h-530l-68 -168q-23 -49 -51.5 -73.5t-81.5 -24.5h-344zM236 1968h364l68 -6l65 -39l316 -278v2v-2h-287l-72 10q-24 6 -63 33zM659 602h306l-148 528z" />
<glyph unicode="&#xc1;" horiz-adv-x="1619" d="M0 0l569 1524h418q53 0 84 -25l47 -74l514 -1425h-360q-57 0 -86 25t-47 73l-64 168h-530l-68 -168q-23 -49 -51.5 -73.5t-81.5 -24.5h-344zM580 1645l315 278l66 39l69 6h363v2v-2l-389 -280q-44 -28 -66 -33l-70 -10h-288zM659 602h306l-148 528z" />
<glyph unicode="&#xc2;" horiz-adv-x="1619" d="M0 0l569 1524h418q53 0 84 -25l47 -74l514 -1425h-360q-57 0 -86 25t-47 73l-64 168h-530l-68 -168q-23 -49 -51.5 -73.5t-81.5 -24.5h-344zM319 1645l388 323h129l69 -8q33 -10 64 -39l329 -276v2v-2h-305l-75 6q-35 8 -62 37l-55 55l-53 -55l-62 -37l-76 -6h-291z M659 602h306l-148 528z" />
<glyph unicode="&#xc3;" horiz-adv-x="1619" d="M0 0l569 1524h418q53 0 84 -25l47 -74l514 -1425h-360q-57 0 -86 25t-47 73l-64 168h-530l-68 -168q-23 -49 -51.5 -73.5t-81.5 -24.5h-344zM453 1634v172q0 23 10 47l33 41q47 37 94 52l90 14l117 -21l86 -38l78 -21l75 14q45 14 131 74v2v-172l-10 -47l-33 -41 q-45 -39 -94 -53l-88 -15q-74 0 -117 21l-84 39q-35 16 -77 20l-78 -14q-41 -14 -133 -74zM659 602h306l-148 528z" />
<glyph unicode="&#xc4;" horiz-adv-x="1619" d="M0 0l569 1524h418q53 0 84 -25l47 -74l514 -1425h-360q-57 0 -86 25t-47 73l-64 168h-530l-68 -168q-23 -49 -51.5 -73.5t-81.5 -24.5h-344zM401 1669v297h347v-297h-347zM659 602h306l-148 528zM872 1669v297h347v-297h-347z" />
<glyph unicode="&#xc5;" horiz-adv-x="1619" d="M0 0l504 1350l-12 16l-25 45q-10 25 -14 68q2 131 100 198q100 66 264 66q353 0 363 -264q-4 -54 -21 -84l-20 -27l493 -1368h-360q-57 0 -86 25t-47 73l-66 168h-528l-33 -86l-35 -82q-23 -49 -51.5 -73.5t-81.5 -24.5h-344zM659 602h306l-148 528zM702 1456 q4 -55 36 -80t78 -24q106 1 114 104v2q-9 101 -114.5 101t-113.5 -103z" />
<glyph unicode="&#xc6;" horiz-adv-x="2154" d="M0 0l401 1268q31 100 83 157t153 78l281 21h1130v-348h-573v-240h524v-348h-524v-234h596v-354h-895l-84 10q-25 8 -35 37l-8 76v473h-5q-207 0 -325.5 -58t-155.5 -155l-59 -203l-27 -82q-23 -49 -50.5 -73.5t-82.5 -24.5h-344zM680 805l53 31l131 59q80 29 174 33h11 v258v-2h-91l-98 -8q-39 -10 -59 -43q-25 -31 -43 -93z" />
<glyph unicode="&#xc7;" horiz-adv-x="1372" d="M84 766q4 532 340 709q156 80 360 79l263 -30l194 -58l84 -34l-117 -299l-26 -43q-14 -14 -40 -14.5t-41 7.5t-26.5 17.5t-40 32t-96.5 45.5l-154 20q-164 0 -227 -172q-31 -91 -33 -258.5t27 -261.5t97.5 -131t178.5 -37l203 14l160 23l63 14l47 -338v-2l-71 -18 l-178 -35l-238 -21l-6 -61q63 -18 96 -57t33 -117q4 -98 -68 -165t-231 -69l-66 5l-71 8l-60 18l33 146l12 34q8 14 39 15l37 -6l35 -7l35 7q20 8 22 30q5 53 -100 58l27 180q-162 31 -274 120q-222 176 -222 652z" />
<glyph unicode="&#xc8;" horiz-adv-x="1316" d="M104 123v1401h1106v-348h-680v-226h631v-348h-631v-248h703v-354h-1002l-84 10q-25 8 -34 37zM123 1968h364l66 -6q35 -10 65 -39l318 -278v2v-2h-287l-71 10q-25 6 -64 33z" />
<glyph unicode="&#xc9;" horiz-adv-x="1316" d="M104 123v1401h1106v-348h-680v-226h631v-348h-631v-248h703v-354h-1002l-84 10q-25 8 -34 37zM377 1645l317 278q31 29 66 39l69 6h363v2v-2l-391 -280l-64 -33l-69 -10h-291z" />
<glyph unicode="&#xca;" horiz-adv-x="1316" d="M104 123v1401h1106v-348h-680v-226h631v-348h-631v-248h703v-354h-1002l-84 10q-25 8 -34 37zM168 1645l387 323h129l70 -8l63 -39l330 -276v2v-2h-305l-76 6l-61 37l-54 55l-55 -55q-29 -29 -61 -37l-76 -6h-291z" />
<glyph unicode="&#xcb;" horiz-adv-x="1316" d="M104 123v1401h1106v-348h-680v-226h631v-348h-631v-248h703v-354h-1002l-84 10q-25 8 -34 37zM250 1669v297h346v-297h-346zM721 1669v297h346v-297h-346z" />
<glyph unicode="&#xcc;" horiz-adv-x="641" d="M-274 1968h364l68 -6q31 -10 65 -39l316 -278v2v-2h-287l-72 10l-63 33zM104 123v1401h308l84 -11q25 -8 34 -36l7 -76v-1401h-306l-84 10q-25 8 -34 37z" />
<glyph unicode="&#xcd;" horiz-adv-x="641" d="M92 1645l318 278l65 39l68 6h362v2v-2l-389 -280q-46 -29 -63 -33l-72 -10h-289zM104 123v1401h308l84 -11q25 -8 34 -36l7 -76v-1401h-306l-84 10q-25 8 -34 37z" />
<glyph unicode="&#xce;" horiz-adv-x="641" d="M-168 1645l389 323h127l70 -8q31 -10 65 -39l328 -276v2v-2h-305l-74 6q-37 10 -63 37l-54 55l-55 -55q-29 -29 -61 -37l-76 -6h-291zM104 123v1401h308l84 -11q25 -8 34 -36l7 -76v-1401h-306l-84 10q-25 8 -34 37z" />
<glyph unicode="&#xcf;" horiz-adv-x="641" d="M-88 1669v297h346v-297h-346zM104 123v1401h308l84 -11q25 -8 34 -36l7 -76v-1401h-306l-84 10q-25 8 -34 37zM385 1669v297h346v-297h-346z" />
<glyph unicode="&#xd0;" horiz-adv-x="1521" d="M-41 602v330h145v600l150 4h375q254 2 413.5 -38t245.5 -128t121 -237q31 -152 31 -370t-33 -370t-119 -237q-86 -90 -246 -129l-413 -39l-140 2l-145 4l-113 6l-84 14q-25 8 -34 35l-9 74v479h-145zM535 338l75 -2h74q133 -2 207 29q72 31 98 124q27 94 27 278.5 t-27 276.5q-29 92 -98 123q-74 31 -207 29h-82l-67 -4v-260h219v-330h-219v-264z" />
<glyph unicode="&#xd1;" horiz-adv-x="1654" d="M104 123v1401h443q63 0 104 -25q41 -29 74 -82l61 -112l101 -197l110 -231l101 -222l63 -166v1035h264l84 -11q25 -8 35 -36l6 -76v-1401h-424q-114 0 -178 111l-250 471l-120 252q-61 133 -76 186v-1020h-271l-84 10q-25 8 -34 37zM487 1634v172q-2 23 9 47l32 41 q53 37 95 52l90 14l116 -21l86 -38q37 -16 80 -21l76 14q43 14 129 74v2v-174l-8 -47l-33 -41q-56 -39 -94 -51l-88 -15q-74 0 -117 21l-86 39q-35 16 -78 20l-75 -14z" />
<glyph unicode="&#xd2;" horiz-adv-x="1626" d="M84 760.5q0 403.5 180 597.5q178 197 551 196.5t551 -196.5q176 -199 176 -598t-176 -598q-178 -197 -551 -197t-552 196t-179 599.5zM236 1968h364l68 -6l65 -39l316 -278v2v-2h-287l-72 10q-24 6 -63 33zM524 760q0 -318 127 -404q66 -41 166 -41t166 41t94.5 140.5 t28.5 263.5q0 328 -125 405q-66 43 -166 43t-165 -40q-126 -78 -126 -408z" />
<glyph unicode="&#xd3;" horiz-adv-x="1626" d="M84 760.5q0 403.5 180 597.5q178 197 551 196.5t551 -196.5q176 -199 176 -598t-176 -598q-178 -197 -551 -197t-552 196t-179 599.5zM524 760q0 -318 127 -404q66 -41 166 -41t166 41t94.5 140.5t28.5 263.5q0 328 -125 405q-66 43 -166 43t-165 -40q-126 -78 -126 -408 zM553 1645l315 278q31 29 66 39l70 6h362v2v-2l-391 -280q-46 -29 -64 -33l-69 -10h-289z" />
<glyph unicode="&#xd4;" horiz-adv-x="1626" d="M84 760.5q0 403.5 180 597.5q178 197 551 196.5t551 -196.5q176 -199 176 -598t-176 -598q-178 -197 -551 -197t-552 196t-179 599.5zM324 1645l387 323h129l69 -8l64 -39l330 -276v2v-2h-306l-75 8q-37 10 -62 35l-55 55l-53 -55q-25 -25 -62 -35l-76 -8h-290zM524 760 q0 -318 127 -404q66 -41 166 -41t166 41t94.5 140.5t28.5 263.5q0 328 -125 405q-66 43 -166 43t-165 -40q-126 -78 -126 -408z" />
<glyph unicode="&#xd5;" horiz-adv-x="1626" d="M84 760.5q0 403.5 180 597.5q178 197 551 196.5t551 -196.5q176 -199 176 -598t-176 -598q-178 -197 -551 -197t-552 196t-179 599.5zM455 1634v172l10 47l33 41l94 52l90 14l117 -21l86 -38q35 -16 78 -21l75 14q45 14 129 74v2v-174l-8 -47l-33 -41q-47 -37 -94 -51 l-88 -15q-74 0 -117 21l-84 39l-77 20l-78 -14zM524 760q0 -318 127 -404q66 -41 166 -41t166 41t94.5 140.5t28.5 263.5q0 328 -125 405q-66 43 -166 43t-165 -40q-126 -78 -126 -408z" />
<glyph unicode="&#xd6;" horiz-adv-x="1626" d="M84 760.5q0 403.5 180 597.5q178 197 551 196.5t551 -196.5q176 -199 176 -598t-176 -598q-178 -197 -551 -197t-552 196t-179 599.5zM403 1669v297h347v-297h-347zM524 760q0 -318 127 -404q66 -41 166 -41t166 41t94.5 140.5t28.5 263.5q0 328 -125 405q-66 43 -166 43 t-165 -40q-126 -78 -126 -408zM874 1669v297h347v-297h-347z" />
<glyph unicode="&#xd7;" horiz-adv-x="1101" d="M84 805l223 223l250 -250l248 248l211 -211l-248 -250l250 -250l-223 -221v2v-2l-250 250l-248 -248l-211 209l248 250z" />
<glyph unicode="&#xd8;" horiz-adv-x="1626" d="M84 760.5q0 403.5 180 597.5q178 197 551 196.5t551 -196.5q176 -199 176 -598t-176 -598q-178 -197 -551 -197t-552 196t-179 599.5zM514 760l8 -150q10 -72 27 -116l461 653q-39 33 -86 47l-109 14q-102 0 -168 -40q-133 -81 -133 -408zM637 365q33 -27 78 -39l100 -11 q102 0 168.5 40t99.5 138.5t33 266.5l-6 135l-20 109v2v-2z" />
<glyph unicode="&#xd9;" horiz-adv-x="1517" d="M84 610v914h301l84 -11q25 -8 35 -36l6 -76v-764q0 -111 19 -181q38 -137 237 -137l106 11l72 24l41 27l6 25v1118h297l84 -11q25 -8 35 -36l8 -76v-1401h-205l-80 16l-79 64l-25 8l-29 -8l-43 -23q-59 -35 -118 -57l-166 -25q-301 -2 -443.5 149t-142.5 486zM164 1968 h364l68 -6l66 -39l317 -278h-289l-69 10q-25 6 -64 33z" />
<glyph unicode="&#xda;" horiz-adv-x="1517" d="M84 610v914h301l84 -11q25 -8 35 -36l6 -76v-764q0 -111 19 -181q38 -137 237 -137l106 11l72 24l41 27l6 25v1118h297l84 -11q25 -8 35 -36l8 -76v-1401h-205l-80 16l-79 64l-25 8l-29 -8l-43 -23q-59 -35 -118 -57l-166 -25q-301 -2 -443.5 149t-142.5 486zM489 1645 l318 278l65 39l68 6h363l-390 -280q-46 -29 -63 -33l-72 -10h-289z" />
<glyph unicode="&#xdb;" horiz-adv-x="1517" d="M84 610v914h301l84 -11q25 -8 35 -36l6 -76v-764q0 -111 19 -181q38 -137 237 -137l106 11l72 24l41 27l6 25v1118h297l84 -11q25 -8 35 -36l8 -76v-1401h-205l-80 16l-79 64l-25 8l-29 -8l-43 -23q-59 -35 -118 -57l-166 -25q-301 -2 -443.5 149t-142.5 486zM252 1645 l389 323h127l70 -8q31 -10 65 -39l330 -276h-307l-74 6q-37 10 -64 37l-53 55l-55 -55l-62 -37l-73 -6h-293z" />
<glyph unicode="&#xdc;" horiz-adv-x="1517" d="M84 610v914h301l84 -11q25 -8 35 -36l6 -76v-764q0 -111 19 -181q38 -137 237 -137l106 11l72 24l41 27l6 25v1118h297l84 -11q25 -8 35 -36l8 -76v-1401h-205l-80 16l-79 64l-25 8l-29 -8l-43 -23q-59 -35 -118 -57l-166 -25q-301 -2 -443.5 149t-142.5 486zM322 1669 v297h346v-297h-346zM793 1669v297h346v-297h-346z" />
<glyph unicode="&#xdd;" horiz-adv-x="1456" d="M-25 1524h361l98 -19q35 -20 64 -80l241 -526l240 522q29 61 63.5 83t96.5 20h338l-533 -1028v-496h-299l-84 10q-25 8 -35 37l-8 76v356zM446 1645l318 278q31 29 65 39l70 6h363v2v-2l-392 -280l-63 -33l-70 -10h-291z" />
<glyph unicode="&#xde;" horiz-adv-x="1355" d="M104 123v1401h308l82 -11q25 -8 34 -36l7 -76v-96h114q244 0 390 -46.5t212 -160.5q63 -115 63.5 -310.5t-61.5 -314.5q-57 -117 -205 -166t-399 -47h-114v-260h-304l-84 10q-25 8 -34 37zM535 592h139l137 12q47 16 64 58.5t17.5 118t-18.5 116.5q-14 39 -63 55l-137 15 h-72l-67 -4v-371z" />
<glyph unicode="&#xdf;" horiz-adv-x="1351" d="M41 770v309h141v107q-4 228 213 319q119 45 297.5 47t295.5 -32q247 -71 247 -375l-10 -127q-16 -95 -121 -168l-25 -21l-8 -20l8 -18l119 -89q82 -86 82 -286q2 -141 -33 -236.5t-130 -141.5t-273 -46l-70 4l-104 16v2l24 293l49 -4h39q63 0 82 35q18 35 17 111l-11 92 l-18 49l-27 14l-49 6h-69v320h61l45 8l23 25l14 55l6 78q0 78 -35 108q-35 31 -103 30q-118 -2 -132 -81q-8 -37 -6 -82v-1071h-271l-84 10q-25 8 -35 37l-8 76v647h-141z" />
<glyph unicode="&#xe0;" d="M53 537q4 201 68 324.5t166 180.5q104 61 227 62l160 -25l100 -47l31 -20l35 -13q14 2 22 15l15 24l28 29l62 12h225v-1079h-225l-62 12q-18 10 -28 29l-15 25l-22 14l-35 -12l-31 -21q-35 -23 -100 -47l-160 -25q-123 0 -229 60q-102 61 -168 184q-59 123 -64 318z M127 1524h365l67 -6l64 -39l317 -279v2v-2h-287l-71 10q-16 4 -31.5 13.5t-32.5 19.5zM471 548q-2 -118 43 -177t145 -60l91 17l36 20l9 12v361l-9 10l-45 23l-75 14q-84 4 -138.5 -49t-56.5 -171z" />
<glyph unicode="&#xe1;" d="M53 537q4 201 68 324.5t166 180.5q104 61 227 62l160 -25l100 -47l31 -20l35 -13q14 2 22 15l15 24l28 29l62 12h225v-1079h-225l-62 12q-18 10 -28 29l-15 25l-22 14l-35 -12l-31 -21q-35 -23 -100 -47l-160 -25q-123 0 -229 60q-102 61 -168 184q-59 123 -64 318z M334 1200l317 279l66 39l67 6h363v2v-2l-389 -281q-46 -29 -64 -33l-71 -10h-289zM471 548q-2 -118 43 -177t145 -60l91 17l36 20l9 12v361l-9 10l-45 23l-75 14q-84 4 -138.5 -49t-56.5 -171z" />
<glyph unicode="&#xe2;" d="M53 537q4 201 68 324.5t166 180.5q104 61 227 62l160 -25l100 -47l31 -20l35 -13q14 2 22 15l15 24l28 29l62 12h225v-1079h-225l-62 12q-18 10 -28 29l-15 25l-22 14l-35 -12l-31 -21q-35 -23 -100 -47l-160 -25q-123 0 -229 60q-102 61 -168 184q-59 123 -64 318z M168 1200l389 324h127l70 -8q31 -10 65 -39l328 -277h-305l-76 6l-61 37l-54 55l-55 -55q-29 -29 -61 -37l-74 -6h-293zM471 548q-2 -118 43 -177t145 -60l91 17l36 20l9 12v361l-9 10l-45 23l-75 14q-84 4 -138.5 -49t-56.5 -171z" />
<glyph unicode="&#xe3;" d="M53 537q4 201 68 324.5t166 180.5q104 61 227 62l160 -25l100 -47l31 -20l35 -13q14 2 22 15l15 24l28 29l62 12h225v-1079h-225l-62 12q-18 10 -28 29l-15 25l-22 14l-35 -12l-31 -21q-35 -23 -100 -47l-160 -25q-123 0 -229 60q-102 61 -168 184q-59 123 -64 318z M281 1188v172l10 47l33 41q47 37 94 51l90 17l117 -21l86 -39l77 -20l76 14q45 14 131 74v-172l-10 -47l-33 -41q-47 -37 -94 -52l-88 -14l-117 21l-84 36q-35 20 -77 21l-76 -12q-37 -13 -135 -76zM471 548q-2 -118 43 -177t145 -60l91 17l36 20l9 12v361l-9 10l-45 23 l-75 14q-84 4 -138.5 -49t-56.5 -171z" />
<glyph unicode="&#xe4;" d="M53 537q4 201 68 324.5t166 180.5q104 61 227 62l160 -25l100 -47l31 -20l35 -13q14 2 22 15l15 24l28 29l62 12h225v-1079h-225l-62 12q-18 10 -28 29l-15 25l-22 14l-35 -12l-31 -21q-35 -23 -100 -47l-160 -25q-123 0 -229 60q-102 61 -168 184q-59 123 -64 318z M227 1227v297h346v-297h-346zM471 548q-2 -118 43 -177t145 -60l91 17l36 20l9 12v361l-9 10l-45 23l-75 14q-84 4 -138.5 -49t-56.5 -171zM698 1227v297h346v-297h-346z" />
<glyph unicode="&#xe5;" d="M53 537q4 201 68 324.5t166 180.5q104 61 227 62l160 -25l100 -47l31 -20l35 -13q14 2 22 15l15 24l28 29l62 12h225v-1079h-225l-62 12q-18 10 -28 29l-15 25l-22 14l-35 -12l-31 -21q-35 -23 -100 -47l-160 -25q-123 0 -229 60q-102 61 -168 184q-59 123 -64 318z M356 1382q8 252 344 252q166 0 255 -64.5t87 -187.5t-91 -187.5t-251 -64.5t-250.5 64.5t-93.5 187.5zM471 548q-2 -118 43 -177t145 -60l91 17l36 20l9 12v361l-9 10l-45 23l-75 14q-84 4 -138.5 -49t-56.5 -171zM588 1382q0 -53 35 -77q33 -27 78.5 -27t78.5 27 q31 22 35 77q-7 103 -115 103q-49 0 -80.5 -25t-31.5 -78z" />
<glyph unicode="&#xe6;" horiz-adv-x="1896" d="M53 537q0 193 69 321q132 244 482 246q261 -7 346 -105q12 -12 27 -22l22 -6l25 8l61 57q37 27 105 47l180 23q231 -4 347 -106.5t116 -294.5q0 -242 -266 -304l-279 -26h-135q2 -68 55 -90l185 -21l176 12l137 25l55 12l37 -286l-223 -37l-223 -15l-228 21 q-139 34 -170 76l-22 20l-23 6l-20 -6l-23 -20l-53 -37q-50 -25 -111 -39l-184 -21q-123 0 -228 59.5t-168.5 183.5t-68.5 319zM471 541q-2 -111 35 -170t139 -60q59 2 100 19l41 18l-8 31l-6 35q-6 33 -6 96v192l-6 29l-19 17l-49 14l-67 6q-80 2 -119 -50t-35 -177z M1149 598h94l109 2q49 6 81 26.5t31 67.5v2q1 48 -30 84q-33 35 -102 37q-147 4 -179 -135l-4 -37v-47z" />
<glyph unicode="&#xe7;" horiz-adv-x="1085" d="M53 532q0 193 74 320q76 125 205 186q135 59 305 60l199 -23l149 -43l59 -22l-81 -222q-28 -81 -91 -83q-36 5 -55 16l-45 22l-59 19l-70 8q-170 4 -178 -235q0 -115 45 -175.5t154 -60.5l178 18l159 31l31 -313v-2l-147 -29l-113 -18l-102 -9l-6 -63q63 -18 95 -57 t32 -117q4 -98 -66 -165t-233 -69l-66 5l-72 8l-59 18l33 146l12 34q8 14 39 15l37 -6l35 -7l36 7q18 8 20.5 30t-18.5 39q-23 16 -81 19l26 180q-379 84 -381 538z" />
<glyph unicode="&#xe8;" horiz-adv-x="1230" d="M53 527.5q0 189.5 75 317.5q148 253 515 261q325 0 457 -178q66 -90 69 -240q-6 -137 -64 -202q-56 -64 -153 -85l-153 -24l-176 -6l-109 2l-49 2q10 -66 70 -90l194 -21l174 12l139 25l56 12l35 -286l-222 -37l-225 -15q-429 0 -561 236q-72 127 -72 316.5zM57 1524h365 l67 -6q31 -10 66 -39l317 -279v2v-2h-288l-72 10q-17 4 -63 33zM457 598h78l67 2l100 6q44 9 62 23l27 30l10 46q0 49 -33 81q-33 33 -118 33t-137 -56t-56 -165z" />
<glyph unicode="&#xe9;" horiz-adv-x="1247" d="M53 527.5q0 189.5 75 317.5q148 253 515 261q325 0 457 -178q66 -90 69 -240q-6 -137 -64 -202q-56 -64 -153 -85l-153 -24l-176 -6l-109 2l-49 2q10 -66 70 -90l194 -21l174 12l139 25l56 12l35 -286l-222 -37l-225 -15q-429 0 -561 236q-72 127 -72 316.5zM371 1200 l317 279l66 39l69 6h363v2v-2l-389 -281q-45 -28 -66 -33l-69 -10h-291zM457 598h78l67 2l100 6q44 9 62 23l27 30l10 46q0 49 -33 81q-33 33 -118 33t-137 -56t-56 -165z" />
<glyph unicode="&#xea;" horiz-adv-x="1230" d="M53 527.5q0 189.5 75 317.5q148 253 515 261q325 0 457 -178q66 -90 69 -240q-6 -137 -64 -202q-56 -64 -153 -85l-153 -24l-176 -6l-109 2l-49 2q10 -66 70 -90l194 -21l174 12l139 25l56 12l35 -286l-222 -37l-225 -15q-429 0 -561 236q-72 127 -72 316.5zM147 1200 l388 324h129l69 -8l66 -39l327 -277v2v-2h-305l-73 8q-39 10 -64 35l-53 55l-56 -55q-25 -25 -63 -35l-74 -8h-291zM457 598h78l67 2l100 6q44 9 62 23l27 30l10 46q0 49 -33 81q-33 33 -118 33t-137 -56t-56 -165z" />
<glyph unicode="&#xeb;" horiz-adv-x="1230" d="M53 527.5q0 189.5 75 317.5q148 253 515 261q325 0 457 -178q66 -90 69 -240q-6 -137 -64 -202q-56 -64 -153 -85l-153 -24l-176 -6l-109 2l-49 2q10 -66 70 -90l194 -21l174 12l139 25l56 12l35 -286l-222 -37l-225 -15q-429 0 -561 236q-72 127 -72 316.5zM213 1227 v297h346v-297h-346zM457 598h78l67 2l100 6q44 9 62 23l27 30l10 46q0 49 -33 81q-33 33 -118 33t-137 -56t-56 -165zM684 1227v297h346v-297h-346z" />
<glyph unicode="&#xec;" horiz-adv-x="563" d="M-332 1524h365l65 -6q35 -10 66 -39l317 -279v2v-2h-286l-72 10q-16 4 -31.5 13.5t-32.5 19.5zM84 123v956h270l84 -10l35 -37l8 -76v-956h-270l-84 10q-25 8 -35 37z" />
<glyph unicode="&#xed;" horiz-adv-x="563" d="M66 1200l317 279q31 29 66 39l67 6h363v2v-2l-390 -281q-46 -29 -63 -33l-72 -10h-288zM84 123v956h270l84 -10l35 -37l8 -76v-956h-270l-84 10q-25 8 -35 37z" />
<glyph unicode="&#xee;" horiz-adv-x="563" d="M-199 1200l387 324h129l70 -8l64 -39l329 -277v2v-2h-305l-76 6q-35 8 -61 37l-53 55l-56 -55q-29 -29 -61 -37l-76 -6h-291zM84 123v956h270l84 -10l35 -37l8 -76v-956h-270l-84 10q-25 8 -35 37z" />
<glyph unicode="&#xef;" horiz-adv-x="563" d="M-125 1227v297h346v-297h-346zM84 123v956h270l84 -10l35 -37l8 -76v-956h-270l-84 10q-25 8 -35 37zM346 1227v297h346v-297h-346z" />
<glyph unicode="&#xf0;" horiz-adv-x="1253" d="M53 541q4 178 74 287.5t188.5 161.5t257.5 52l43 -4l62 -12l-47 53l-56 56l-45 41l-110 -72l-158 170l94 65l-34 35l-43 39l272 203l92 -80l135 94l166 -194l-119 -80q112 -117 171 -201q160 -228 192 -443q12 -81 14 -171q-4 -274 -148 -418.5t-427 -149.5 q-285 4 -429 151t-145 417zM461 512q0 -124 61 -182q39 -35 109 -35v2v-2q172 0 168 217l-13 109q-8 41 -32 69l-52 29l-71 8q-170 0 -170 -215z" />
<glyph unicode="&#xf1;" horiz-adv-x="1234" d="M84 123v956h225l62 -12l28 -29l15 -24l22 -15l35 13l31 20q35 23 100 47l160 25q244 5 342 -160q55 -92 59 -270v-674h-270l-84 10q-25 8 -35 37l-8 76v504q0 84 -37 114q-43 29 -111 27l-92 -16l-37 -21l-8 -12v-719h-270l-84 10q-25 8 -35 37zM274 1188v172l11 47 l32 41q47 37 95 51l90 17l116 -21l87 -39q35 -16 77 -20l76 14q45 14 131 74v2v-174l-8 -47l-35 -41q-47 -37 -92 -52l-90 -14l-117 21l-84 36q-35 20 -78 21l-77 -12q-35 -12 -134 -76z" />
<glyph unicode="&#xf2;" horiz-adv-x="1308" d="M53 543q4 274 158 416.5t444 146.5q184 0 319.5 -66t209.5 -190q69 -125 73 -311q-4 -274 -158.5 -416.5t-443.5 -147.5q-184 0 -319 66q-283 138 -283 502zM98 1524h365l67 -6l66 -39l317 -279v2v-2h-288l-70 10q-17 4 -63 33zM465 541q0 -117 43 -179q45 -61 147 -61 q193 0 189 240q4 239 -189 239q-102 0 -146 -61t-44 -178z" />
<glyph unicode="&#xf3;" horiz-adv-x="1308" d="M53 543q4 274 158 416.5t444 146.5q184 0 319.5 -66t209.5 -190q69 -125 73 -311q-4 -274 -158.5 -416.5t-443.5 -147.5q-184 0 -319 66q-283 138 -283 502zM371 1200l317 279q31 29 66 39l69 6h363v2v-2l-389 -281q-45 -28 -66 -33l-69 -10h-291zM465 541 q0 -117 43 -179q45 -61 147 -61q193 0 189 240q4 239 -189 239q-102 0 -146 -61t-44 -178z" />
<glyph unicode="&#xf4;" horiz-adv-x="1308" d="M53 543q4 274 158 416.5t444 146.5q184 0 319.5 -66t209.5 -190q69 -125 73 -311q-4 -274 -158.5 -416.5t-443.5 -147.5q-184 0 -319 66q-283 138 -283 502zM164 1200l387 324h129l70 -8q31 -10 65 -39l330 -277v2v-2h-307l-74 8q-39 10 -64 35l-53 55l-55 -55 q-25 -25 -62 -35l-75 -8h-291zM465 541q0 -117 43 -179q45 -61 147 -61q193 0 189 240q4 239 -189 239q-102 0 -146 -61t-44 -178z" />
<glyph unicode="&#xf5;" horiz-adv-x="1308" d="M53 543q4 274 158 416.5t444 146.5q184 0 319.5 -66t209.5 -190q69 -125 73 -311q-4 -274 -158.5 -416.5t-443.5 -147.5q-184 0 -319 66q-283 138 -283 502zM297 1188v172q0 27 10 47l33 41q47 37 94 51l90 17l117 -21l86 -39q37 -16 80 -20l76 14q43 14 129 74v2v-174 l-8 -47q-14 -33 -58.5 -58.5t-68.5 -34.5l-89 -14q-74 4 -116 21l-86 36l-78 21l-78 -12zM465 541q0 -117 43 -179q45 -61 147 -61q193 0 189 240q4 239 -189 239q-102 0 -146 -61t-44 -178z" />
<glyph unicode="&#xf6;" horiz-adv-x="1308" d="M53 543q4 274 158 416.5t444 146.5q184 0 319.5 -66t209.5 -190q69 -125 73 -311q-4 -274 -158.5 -416.5t-443.5 -147.5q-184 0 -319 66q-283 138 -283 502zM246 1227v297h346v-297h-346zM465 541q0 -117 43 -179q45 -61 147 -61q193 0 189 240q4 239 -189 239 q-102 0 -146 -61t-44 -178zM717 1227v297h346v-297h-346z" />
<glyph unicode="&#xf7;" horiz-adv-x="1087" d="M53 385v309h983v-309h-983zM352 0v297h383v-297h-383zM352 782v297h383v-297h-383z" />
<glyph unicode="&#xf8;" horiz-adv-x="1308" d="M53 543q4 274 158 416.5t444 146.5q184 0 319.5 -66t209.5 -190q69 -125 73 -311q-4 -274 -158.5 -416.5t-443.5 -147.5q-184 0 -319 66q-283 138 -283 502zM451 541q0 -115 38 -166l275 385l-49 18l-60 6q-106 0 -155 -61t-49 -182zM563 311q18 -8 41 -12l51 -2 q104 0 155.5 61t47.5 183l-6 82l-21 65v2v-2z" />
<glyph unicode="&#xf9;" horiz-adv-x="1226" d="M31 1524h364l66 -6l65 -39l318 -279v2v-2h-287l-72 10q-17 4 -63 33zM74 406v673h270l84 -10q25 -8 35 -37l8 -76v-501q0 -84 35 -115q39 -29 106 -27l90 15l37 22l6 12l3 11v706h270l84 -10l35 -37l6 -76v-956h-223q-67 0 -91 41l-14 25q-10 12 -24 12l-35 -10l-29 -21 q-37 -25 -98 -47l-158 -25q-98 -2 -190 33t-148 127q-55 92 -59 271z" />
<glyph unicode="&#xfa;" horiz-adv-x="1226" d="M74 406v673h270l84 -10q25 -8 35 -37l8 -76v-501q0 -84 35 -115q39 -29 106 -27l90 15l37 22l6 12l3 11v706h270l84 -10l35 -37l6 -76v-956h-223q-67 0 -91 41l-14 25q-10 12 -24 12l-35 -10l-29 -21q-37 -25 -98 -47l-158 -25q-98 -2 -190 33t-148 127q-55 92 -59 271z M348 1200l318 279q31 29 65 39l68 6h362v2v-2l-389 -281l-63 -33l-70 -10h-291z" />
<glyph unicode="&#xfb;" horiz-adv-x="1226" d="M74 406v673h270l84 -10q25 -8 35 -37l8 -76v-501q0 -84 35 -115q39 -29 106 -27l90 15l37 22l6 12l3 11v706h270l84 -10l35 -37l6 -76v-956h-223q-67 0 -91 41l-14 25q-10 12 -24 12l-35 -10l-29 -21q-37 -25 -98 -47l-158 -25q-98 -2 -190 33t-148 127q-55 92 -59 271z M125 1200l387 324h129l68 -8q31 -10 65 -39l330 -277v2v-2h-307l-74 6l-61 37l-56 55l-53 -55q-27 -27 -64 -37l-73 -6h-291z" />
<glyph unicode="&#xfc;" horiz-adv-x="1226" d="M74 406v673h270l84 -10q25 -8 35 -37l8 -76v-501q0 -84 35 -115q39 -29 106 -27l90 15l37 22l6 12l3 11v706h270l84 -10l35 -37l6 -76v-956h-223q-67 0 -91 41l-14 25q-10 12 -24 12l-35 -10l-31 -21q-46 -29 -96 -47l-158 -25q-98 -2 -190 33t-148 127q-55 92 -59 271z M193 1227v297h346v-297h-346zM666 1227v297h346v-297h-346z" />
<glyph unicode="&#xfd;" horiz-adv-x="1226" d="M74 406v673h270l84 -10q25 -8 35 -37l8 -76v-501q0 -84 35 -115q39 -29 106 -27l90 15l37 22l6 12l3 11v706h270l84 -10l35 -37l6 -76v-929q-4 -258 -141 -379t-381 -121l-197 27q-89 30 -139 59l-84 57l-29 27l178 207l29 -23q29 -18 82 -37l133 -20q72 0 113 35t43 102 v53l-7 33l-16 10l-14 -2l-21 -10q-47 -31 -108 -49l-117 -21q-234 -5 -334 160q-55 92 -59 271zM342 1200l317 279q31 29 66 39l68 6h362v2v-2l-389 -281q-46 -29 -64 -33l-69 -10h-291z" />
<glyph unicode="&#xfe;" d="M84 -250v1774h270l88 -11q27 -8 33 -36l6 -76v-336l4 -33q6 -10 17 -10l14 2l19 10q51 31 110 49l117 21q123 0 229 -60q102 -61 168 -184q59 -123 64 -317q-4 -200 -68 -324.5t-166 -181.5q-104 -61 -227 -62l-117 21q-59 18 -110 49l-19 10l-14 2l-17 -10l-4 -33v-389 h-270l-88 10q-27 8 -33 37t-6 78zM481 358l8 -10q16 -12 46 -22l75 -15q84 -4 137.5 48t56.5 171.5t-40 178.5q-47 59 -148 59l-90 -16l-37 -21l-8 -12v-361z" />
<glyph unicode="&#xff;" horiz-adv-x="1226" d="M74 406v673h270l84 -10q25 -8 35 -37l8 -76v-501q0 -84 35 -115q39 -29 106 -27l90 15l37 22l6 12l3 11v706h270l84 -10l35 -37l6 -76v-929q-4 -258 -141 -379t-381 -121l-197 27q-89 30 -139 59l-84 57l-29 27l178 207l29 -23q29 -18 82 -37l133 -20q72 0 113 35t43 102 v53l-7 33l-16 10l-14 -2l-21 -10q-47 -31 -108 -49l-117 -21q-234 -5 -334 160q-55 92 -59 271zM205 1227v297h346v-297h-346zM676 1227v297h346v-297h-346z" />
<glyph unicode="&#x2c6;" horiz-adv-x="1062" d="M43 1198l387 326h129l70 -8q33 -10 63 -39l330 -279v2v-2h-307l-74 8q-35 8 -61 37l-56 53l-53 -53l-63 -37l-74 -8h-291z" />
<glyph unicode="&#x2dc;" horiz-adv-x="796" d="M43 1188v172l8 47l33 41q54 38 94 51l90 17l117 -21l86 -39l80 -20l74 14q45 14 131 74v2v-174l-8 -47l-35 -41q-47 -37 -92 -52l-91 -14l-114 21l-86 36l-78 21l-76 -12q-43 -14 -133 -76z" />
<glyph unicode="&#x2000;" horiz-adv-x="985" />
<glyph unicode="&#x2001;" horiz-adv-x="1970" />
<glyph unicode="&#x2002;" horiz-adv-x="985" />
<glyph unicode="&#x2003;" horiz-adv-x="1970" />
<glyph unicode="&#x2004;" horiz-adv-x="656" />
<glyph unicode="&#x2005;" horiz-adv-x="492" />
<glyph unicode="&#x2006;" horiz-adv-x="328" />
<glyph unicode="&#x2007;" horiz-adv-x="328" />
<glyph unicode="&#x2008;" horiz-adv-x="246" />
<glyph unicode="&#x2009;" horiz-adv-x="394" />
<glyph unicode="&#x200a;" horiz-adv-x="109" />
<glyph unicode="&#x2010;" horiz-adv-x="899" d="M74 395v330h753v-330h-753z" />
<glyph unicode="&#x2011;" horiz-adv-x="899" d="M74 395v330h753v-330h-753z" />
<glyph unicode="&#x2012;" horiz-adv-x="899" d="M74 395v330h753v-330h-753z" />
<glyph unicode="&#x2013;" horiz-adv-x="1239" d="M84 393v332h1071v-332h-1071z" />
<glyph unicode="&#x2014;" horiz-adv-x="2050" d="M84 393v332h1884v-332h-1884z" />
<glyph unicode="&#x2018;" horiz-adv-x="577" d="M84 823v172q0 176 63 312q63 135 203 243l164 -147q-53 -47 -81 -112t-34 -103h101v-365h-416z" />
<glyph unicode="&#x2019;" horiz-adv-x="577" d="M63 944q51 49 80 111l37 106h-102v363h416v-172q4 -351 -267 -553v2v-2z" />
<glyph unicode="&#x201a;" horiz-adv-x="577" d="M63 -217q51 49 80 111l37 106h-102v362h416v-172q2 -174 -61.5 -310t-205.5 -242v2v-2z" />
<glyph unicode="&#x201c;" horiz-adv-x="1116" d="M84 823v172q0 176 63 312q63 135 203 243l164 -147q-53 -49 -81 -113t-34 -104h101v-363h-416zM623 823v172q0 176 63 312q63 135 203 243l164 -147q-53 -49 -81 -113t-34 -104h100v-363h-415z" />
<glyph unicode="&#x201d;" horiz-adv-x="1116" d="M63 946q51 45 80 109l37 106h-102v363h416v-172q4 -351 -267 -553zM602 946q51 45 80 109l37 106h-103v363h416v-172q2 -174 -61 -310.5t-205 -242.5v2v-2z" />
<glyph unicode="&#x201e;" horiz-adv-x="1116" d="M63 -217q51 49 80 111l37 106h-102v362h416v-172q2 -174 -61.5 -310t-205.5 -242zM602 -217q51 49 80 111l37 106h-103v362h416v-172q2 -174 -61 -310t-205 -242v2v-2z" />
<glyph unicode="&#x2022;" horiz-adv-x="815" d="M137 764q0 175 139 248q63 31 134 30q157 -1 231 -122q35 -59 39 -156q-8 -184 -137 -250q-61 -31 -133 -31v2v-2q-157 0 -234 125q-39 59 -39 156z" />
<glyph unicode="&#x2026;" horiz-adv-x="1748" d="M84 0v362h416v-362h-416zM668 0v362h415v-362h-415zM1249 0v362h416v-362h-416z" />
<glyph unicode="&#x202f;" horiz-adv-x="394" />
<glyph unicode="&#x2039;" horiz-adv-x="858" d="M43 717l293 432q27 41 70 57l100 15h278l-342 -486l353 -524v2v-2h-306l-98 14q-37 14 -69 66z" />
<glyph unicode="&#x203a;" horiz-adv-x="858" d="M63 1221h306l98 -15q37 -14 70 -65l280 -426l-295 -432q-27 -41 -69 -58l-101 -14v2v-2h-278l342 485z" />
<glyph unicode="&#x205f;" horiz-adv-x="492" />
<glyph unicode="&#x20ac;" horiz-adv-x="1411" d="M43 479v242h143l-2 47l2 51h-143v242h176q132 493 666 493l239 -22l174 -43l72 -27l-117 -303l-26 -39q-16 -12 -33 -12q-33 0 -94 43q-49 31 -107 45l-108 12q-143 0 -215 -147h344v-242h-389l-2 -51l2 -47h389v-242h-352q31 -84 95 -118t171 -33l192 16l178 35v2v-2 l48 -330l-60 -18l-160 -35l-233 -21q-195 0 -330 52q-141 49 -230 160.5t-122 291.5h-168z" />
<glyph unicode="&#x2122;" horiz-adv-x="1781" d="M84 1315v209h672v-209h-228v-576h-141q-41 0 -58 17.5t-18 58.5v500h-227zM784 739l95 785h194l51 -13q16 -12 25 -45l92 -372l115 430h182q41 0 57 -17l19 -55l86 -711v-2h-150q-43 0 -57 14.5t-18 53.5l-33 375l-119 -437h-115q-43 0 -58 23t-28 59l-84 349l-30 -367 q-8 -68 -74 -70h-150z" />
<glyph unicode="&#xe000;" horiz-adv-x="1075" d="M0 0v1075h1075v-1075h-1075z" />
</font>
</defs>
</svg>
