<?xml version="1.0" standalone="no"?>
<!DOCTYPE svg PUBLIC "-//W3C//DTD SVG 1.1//EN" "http://www.w3.org/Graphics/SVG/1.1/DTD/svg11.dtd" >
<svg xmlns="http://www.w3.org/2000/svg">
<metadata></metadata>
<defs>
<font id="CarlsbergSansBold" horiz-adv-x="1165" >
<font-face units-per-em="2048" ascent="1638" descent="-410" />
<missing-glyph horiz-adv-x="587" />
<glyph horiz-adv-x="0" />
<glyph horiz-adv-x="2048" />
<glyph unicode=" " horiz-adv-x="587" d="M0 0v2v-2z" />
<glyph unicode="!" horiz-adv-x="536" d="M129 0v252h303v-252h-303zM145 479v1045h189q51 2 67 -17.5t17 -66.5v-1045h-191q-53 0 -68 19.5t-14 64.5z" />
<glyph unicode="&#x22;" horiz-adv-x="786" d="M82 1524h172q86 0 84 -80l-31 -490h-123q-39 0 -58 19.5t-24 70.5zM459 1524h172l65 -19q20 -20 17 -61l-31 -488v-2h-121q-39 0 -58 19.5t-24 70.5z" />
<glyph unicode="#" horiz-adv-x="1486" d="M53 285v223h252l94 389h-192v221h244l84 326q8 45 24 63t55 17h181l-101 -406h303l82 326q10 47 24.5 64t53.5 16h184l-102 -406h197v2v-223h-250l-92 -389h190v-223h-248l-90 -363l-22 -63q-16 -18 -58 -17h-178l107 443h-303l-89 -363l-24 -63q-16 -18 -55 -17h-181 l107 443h-197zM549 508h301l92 389h-301z" />
<glyph unicode="$" horiz-adv-x="1191" d="M92 1061.5q0 103.5 31 200.5q81 222 352 272v178h168q51 2 68 -18q16 -25 14 -74v-78l170 -29l115 -34l45 -19l-74 -219l-18 -27l-25 -10l-27 8l-34 23q-41 27 -105 49l-145 21q-248 0 -248 -209q0 -129 125 -181q79 -27 191 -48t217 -71t153 -130q45 -84 43 -209 q2 -182 -89 -307t-294 -164v-219h-164q-53 0 -72 20q-16 20 -14 70v116l-188 23l-133 27l-54 14l39 235l62 -14l145 -22l176 -15q226 4 275 107q23 49 20.5 111.5t-37.5 105.5q-39 43 -98 63l-139 35q-317 53 -406 227q-45 88 -45 191.5z" />
<glyph unicode="%" horiz-adv-x="2000" d="M94 1190q2 123 56 207q105 166 370 166q260 0 366 -165q54 -85 54 -209.5t-54 -208.5q-105 -165 -366 -165q-265 0 -370 166q-53 82 -56 209zM342 1190q2 -98 48 -150.5t131 -52.5t128 47t43 152.5t-45 154.5t-128 49.5t-128 -45t-49 -155.5zM358 0l926 1454l43 55l57 15 h242l-926 -1454l-41 -54q-23 -16 -59 -16h-242zM1063 349q0 249 203 333q98 41 221 41q263 0 366 -164q54 -84 54 -209t-55 -210q-105 -165 -365 -165q-264 0 -371 166q-53 82 -53 208zM1309 350q2 -102 48 -153t128 -52q174 0 174 205v2q-1 197 -174 197q-82 2 -127 -43 t-49 -156z" />
<glyph unicode="&#x26;" horiz-adv-x="1613" d="M128 437.5q3 117.5 32 183.5q35 70 80 108l86 64l47 26q16 12 20 29l-20 31l-47 30q-53 31 -93.5 88t-42.5 166q2 147 77 232.5t194 117.5l250 35l200 -18l136 -35l51 -18l-74 -217l-18 -27l-27 -8l-27 8l-37 20l-88 37l-112 15l-115 -17q-49 -14 -83 -51t-34 -96 q0 -106 70 -153.5t190 -47.5h54v-223h-72q-139 0 -221 -64q-80 -59 -84 -190q0 -172 184 -223q80 -27 226.5 -27t248.5 57t107 189q-2 41 -19 76l-32 49l-19 16l-61 -53q-96 -86 -101 -168v-2l-237 -2q-5 96 59 198l109 129l317 304q78 74 104 134t29 126h242 q2 -53 -8 -115.5t-47 -131.5t-113 -142l-92 -93l26 -24l56 -64l55 -102q25 -59 25 -131q2 -135 -67 -246q-148 -239 -621 -246q-473 8 -605 240q-61 109 -58 226.5z" />
<glyph unicode="'" horiz-adv-x="423" d="M82 1524h172q86 0 84 -80l-31 -488v-2h-123q-39 0 -58 20.5t-24 69.5z" />
<glyph unicode="(" horiz-adv-x="780" d="M127 684q-8 586 203 797q115 109 323 112v-215q-102 -6 -155 -81q-102 -144 -92 -609q-3 -200 20 -366.5t76 -243t151 -82.5v2v-223q-209 4 -323 105q-211 189 -203 804z" />
<glyph unicode=")" horiz-adv-x="780" d="M127 -8q100 2 153.5 78t69.5 190q27 191 27 363q0 291 -20.5 438.5t-75.5 226t-154 84.5v221q209 -4 322 -106t159 -305q49 -216 45 -496q4 -265 -43 -475.5t-159.5 -321.5t-323.5 -114v217z" />
<glyph unicode="*" horiz-adv-x="753" d="M43 1206l43 140q10 29 29 34l45 -8l151 -76l-28 228h145l43 -13l8 -47l-24 -168l204 95l48 -136q10 -29 1 -44t-44 -21l-162 -31l151 -166v2v-2l-116 -86q-48 -33 -74 21l-78 147l-115 -196l-116 84q-47 34 -4 77l116 119z" />
<glyph unicode="+" horiz-adv-x="1032" d="M74 449v229h323v328h156q51 2 68 -17q16 -20 14 -67v-244h323v-229h-323v-328h-154q-55 0 -70 19t-14 65v244h-323z" />
<glyph unicode="," horiz-adv-x="522" d="M106 -209l41 49l46 74l22 86h-96v270h309v-155q0 -109 -35 -195t-82 -141l-94 -92v2v-2z" />
<glyph unicode="-" horiz-adv-x="847" d="M100 446v234h648v-234h-648z" />
<glyph unicode="." horiz-adv-x="520" d="M104 0v270h312v-270h-312z" />
<glyph unicode="/" horiz-adv-x="958" d="M0 -186l674 1826q12 39 33 54.5t57 15.5h194l-675 -1827l-31 -53q-23 -16 -59 -16v2v-2h-193z" />
<glyph unicode="0" horiz-adv-x="1374" d="M84 755.5q0 260.5 58 436.5q117 354 544 354q428 0 545 -352q61 -178 61 -438t-59 -433.5t-193.5 -262.5t-353.5 -89t-352 89t-191.5 262t-58.5 433.5zM385 756q-4 -188 25 -311q57 -240 276 -236v2v-2q119 -2 186 55q121 109 119 492q0 197 -26.5 316.5t-93.5 178.5 t-183 61q-225 2 -278 -239q-29 -123 -25 -317z" />
<glyph unicode="1" horiz-adv-x="677" d="M74 1294v230h383q53 4 68 -14.5t16 -69.5v-1440h-211q-51 -2 -66.5 15t-15.5 69v1210h-174z" />
<glyph unicode="2" horiz-adv-x="1155" d="M74 84v225q4 131 55 213t135 140l193 112l178 98q147 85 147 207.5t-72.5 175.5t-213.5 50l-174 -19l-121 -37l-47 -18l-56 223l54 23q78 29 147 45l219 24q170 0 297 -43q125 -47 195 -140t73 -251q-7 -251 -200 -377q-101 -65 -189 -110l-168 -95q-76 -43 -116 -94 q-43 -49 -43 -123v-67h702v-246h-913q-51 -2 -66.5 15t-15.5 69z" />
<glyph unicode="3" horiz-adv-x="1138" d="M-4 57v2v-2l59 222l47 -17l127 -29l187 -16q350 0 342 225q0 76 -37 125q-39 49 -125 78l-231 25h-54v225h45q368 0 361 229q0 98 -72 140q-72 41 -199 41l-159 -17l-119 -33l-47 -16l-55 225l57 21l145 39l197 22q150 0 270.5 -33t198.5 -120.5t80 -243.5 q-4 -76 -25 -132t-53 -89l-66 -60l-45 -30l-20 -31q4 -16 20 -29l47 -26l82 -58q99 -85 99 -266q2 -123 -57 -226q-127 -220 -560 -229l-235 23l-152 41z" />
<glyph unicode="4" horiz-adv-x="1191" d="M53 332v211q4 121 48 212t120 167l162 139l168 133q73 62 133 147q49 76 53 183h213q53 4 70 -17q20 -16 16 -65q-4 -109 -65 -203t-154 -172q-92 -84 -190 -154l-138 -112q-56 -49 -102 -117q-35 -59 -39 -135v-60h445v259h198q53 4 70 -17q16 -20 14 -67v-664h-198 q-51 -2 -68 16q-16 20 -16 68v164h-656q-55 0 -70 19t-14 65z" />
<glyph unicode="5" horiz-adv-x="1185" d="M49 57l62 230l49 -19l131 -32l184 -19q133 4 203 42t102.5 103.5t30.5 141.5q2 100 -54 156.5t-200 60.5l-149 -10l-191 -33q-53 0 -67 27q-18 27 -17 71v748h893v-244h-616v-334l32 6l80 11l103 6q184 -2 292.5 -69t150.5 -172t42 -196q0 -222 -109 -364 q-68 -86 -185.5 -139t-305.5 -56l-250 23l-156 41l-55 20v2v-2z" />
<glyph unicode="6" horiz-adv-x="1247" d="M82 578q0 348 94 556t308 300t554 90v-238q-225 -4 -367 -57t-206 -146q-70 -94 -72 -206l33 24q35 27 102 49l174 27q135 0 244 -53t174.5 -164.5t67.5 -278.5v-2q-2 -154 -68 -269q-130 -229 -479 -239q-174 4 -277.5 55.5t-166.5 135.5q-115 166 -115 416z M378.5 492.5q0.5 -135.5 70.5 -213.5q68 -82 193.5 -81t191.5 78q65 78 61 205q0 137 -68 207t-191.5 70t-190.5 -65t-66.5 -200.5z" />
<glyph unicode="7" horiz-adv-x="1046" d="M29 1280v244h991v-289q0 -100 -25 -178t-69.5 -135t-108.5 -115l-149 -131q-84 -78 -123 -157t-47 -161l-6 -174v-184h-209q-51 -2 -66.5 15t-15.5 69v100q0 144 14 246q31 228 213 391l158 137q68 55 108 119q35 63 39 160v43h-704z" />
<glyph unicode="8" horiz-adv-x="1320" d="M76 428q7 176 94 260l82 64l49 30q20 8 21 27l-19 29l-47 32q-49 31 -88 93.5t-43 164.5q0 135 68 228q63 94 184 142t283 48q335 0 468 -188q68 -92 68 -230q-4 -100 -42 -163.5t-87 -94.5l-49 -32q-16 -12 -17 -29q0 -16 19 -29l49 -28l82 -64l68 -104q24 -56 28 -156 q-8 -304 -274 -410q-129 -51 -311 -51q-376 0 -515 205q-68 98 -71 256zM372.5 440q2.5 -121 80.5 -182q82 -59 209 -59t208 59q78 61 80 183t-71 188q-74 66 -217 65.5t-218 -65.5q-74 -68 -71.5 -189zM420 1122q0 -209 242 -211q123 0 182 56q59 55 59 157v2 q-3 107 -67 160q-68 51 -173 51t-176 -53q-66 -53 -67 -162z" />
<glyph unicode="9" horiz-adv-x="1247" d="M61 1036q0 314 252 447q121 59 295 63q176 -4 280 -55t163 -137q63 -84 89 -191t25 -225v-2q0 -348 -95 -554t-309 -295t-550 -87v238q239 4 371 54t201 141t73 206l-33 -27q-88 -68 -278 -73q-133 0 -244 55q-230 114 -240 442zM350 1034q8 -278 260 -276 q121 0 189.5 64.5t68.5 199.5t-67.5 216t-195.5 79t-191 -78t-64 -205z" />
<glyph unicode=":" horiz-adv-x="577" d="M133 0v270h309v-270h-309zM133 776v271h309v-271h-309z" />
<glyph unicode=";" horiz-adv-x="546" d="M123 -209l41 49l43 74l22 86h-96v270h309v-155q0 -192 -114 -336l-97 -92v2v-2zM133 776v271h309v-271h-309z" />
<glyph unicode="&#x3c;" horiz-adv-x="1060" d="M113 498v170l837 376v-167q0 -49 -18 -68l-64 -37l-444 -180l442 -191l68 -43q18 -23 16 -65v-176z" />
<glyph unicode="=" horiz-adv-x="991" d="M74 248v227h846v-227h-846zM74 657v230h846v-230h-846z" />
<glyph unicode="&#x3e;" horiz-adv-x="1060" d="M113 106v175q-2 49 17 69t69 37l440 184l-451 185q-49 23 -64 44.5t-11 63.5v172l837 -381v-172z" />
<glyph unicode="?" horiz-adv-x="1144" d="M78 1462l57 23l148 41l217 20q330 0 463 -188q68 -96 67.5 -229.5t-33.5 -208t-92 -123.5t-135 -86l-117 -60q-51 -27 -82 -71.5t-30 -118.5v-66h-193q-53 0 -67 17.5t-15 66.5v43q4 96 40 154.5t102.5 102.5t158.5 91l95 56q75 58 75 161q-7 143 -127 191l-125 22 l-147 -22l-90 -45l-35 -21l-27 -6l-24 8l-17 29zM250 0v252h307v-252h-307z" />
<glyph unicode="@" horiz-adv-x="2273" d="M100 502q0 207 74 391q70 184 211 332q295 307 807 315q272 -4 459 -74q190 -76 305 -198q164 -181 206 -448q13 -83 11 -171q0 -342 -179 -498.5t-515 -154.5l-54 10q-18 8 -24 29l-15 26l-18 7l-27 -7l-28 -16q-43 -25 -105 -41l-151 -20q-263 0 -379 223 q-59 111 -62 282q2 174 64.5 289t161 169t215.5 54l149 -20l135 -55l27 -8l23 10l16 24l27 21l51 8h139v-702l4 -50q2 -12 46 -12t102 39q129 93 129 404t-174 485t-521 178q-367 0 -596 -217q-185 -176 -228 -420q-15 -86 -17 -184q4 -225 74.5 -375t185.5 -231 q119 -88 254 -121l276 -33l207 20l145 43l74 37l57 37q20 14 37 19q14 0 25 -13l20 -35l58 -182l-53 -22l-144 -47l-213 -48l-260 -22q-182 0 -362 51t-325.5 165t-234.5 298q-86 179 -90 459zM903 492q-4 -145 62 -224q61 -78 190 -78l125 21q45 19 70 47l4 21v428l-2 18 l-13 14l-63 35l-115 21q-70 0 -131 -29q-127 -69 -127 -274z" />
<glyph unicode="A" horiz-adv-x="1474" d="M12 0l563 1524h271l65 -13l37 -59l518 -1452h-229l-66 12q-20 12 -36 60l-76 223h-643l-80 -223q-16 -47 -37 -60l-66 -12v2v-2h-221zM487 530h502l-244 770z" />
<glyph unicode="B" horiz-adv-x="1413" d="M139 84v1446l279 6l211 4l364 -33q141 -35 209 -126t68 -263q0 -106 -35 -173t-105 -116l-20 -18l-8 -18q0 -8 6 -17l16 -14q92 -45 136 -124q43 -76 43 -202v-12v-10q0 -171 -65 -264q-67 -96 -216 -130l-393 -32l-146 2l-149 4l-111 6q-55 4 -70 21q-14 16 -14 57v6z M424 221l70 -2h98l80 -2l215 19q74 18 102 67q25 46 25 125v12l-13 117l-28 74l-37 33l-64 6v2v-2h-448v-449zM424 885h446l60 10l24 31l29 78l10 100v12q0 74 -24 117q-27 45 -101 63l-209 17h-137l-98 -4v-424z" />
<glyph unicode="C" horiz-adv-x="1294" d="M90 768q4 535 318 707q143 81 332 81h5l236 -26l176 -47l70 -27l-80 -209l-19 -28q-10 -10 -26 -11l-31 9q-16 6 -51 31.5t-105 49.5l-165 25h-8q-221 0 -306 -227q-47 -123 -48 -329v-9q0 -399 167 -490q82 -49 213 -49h20l164 10l142 19l88 16v2v-2l35 -223l-101 -25 l-166 -26l-194 -15q-221 0 -370 77q-296 154 -296 716z" />
<glyph unicode="D" horiz-adv-x="1474" d="M139 84v1450l115 2l180 2l205 2q233 0 379 -40t224 -128q138 -155 138 -571v-35v-27q0 -207 -30 -348q-32 -150 -115 -239q-84 -90 -238 -128q-146 -36 -371 -36h-24l-137 2l-135 4l-107 6q-55 4 -70 21q-14 16 -14 57v6zM430 233l45 -2l84 -2h100l213 21q88 23 133.5 81 t63.5 162.5t18 274.5t-18 275.5t-63 163.5t-134 81l-213 19h-94l-84 -2l-51 -2v-1070z" />
<glyph unicode="E" horiz-adv-x="1241" d="M139 84v1440h1002v-244h-715v-383h668v-240h-668v-407h743v-250h-946q-9 -1 -17 -1q-39 0 -52 17q-15 19 -15 62v6z" />
<glyph unicode="F" horiz-adv-x="1202" d="M139 84v1440h1004v-244h-717v-383h668v-240h-668v-657h-203q-9 -1 -17 -1q-39 0 -52 17q-15 19 -15 62v6z" />
<glyph unicode="G" horiz-adv-x="1439" d="M90 760q4 285 86 459t242 258q158 79 379 79h6l213 -18l164 -41l106 -43l-86 -217l-18 -29q-10 -10 -23 -10l-29 6l-30 19q-66 47 -137 75l-160 25h-9q-259 0 -348 -225q-47 -125 -49 -331v-19q0 -193 39 -306q37 -121 126 -173t245 -52l131 21q57 18 68 26l32 29l6 47 v463h205h10q43 0 57 -15q15 -18 15 -69v-719h-151l-62 10l-37 31l-24 25q-8 8 -27 12l-26 -10l-37 -23q-41 -25 -119 -47l-166 -25q-190 0 -320.5 79t-201.5 253q-66 172 -70 455z" />
<glyph unicode="H" horiz-adv-x="1538" d="M139 84v1440h207h9q43 0 59 -17q14 -18 14 -57v-10v-541h684v625h205h9q43 0 58 -18t15 -61v-5v-1440h-203q-9 -1 -17 -1q-39 0 -53 17q-14 18 -14 58v10v569h-684v-653h-205q-9 -1 -17 -1q-39 0 -52 17q-15 19 -15 62v6z" />
<glyph unicode="I" horiz-adv-x="569" d="M139 84v1440h209h9q43 0 59 -17q14 -18 14 -57v-10v-1440h-207q-9 -1 -17 -1q-39 0 -52 17q-15 19 -15 62v6z" />
<glyph unicode="J" horiz-adv-x="978" d="M33 20l39 236l131 -25l121 -8l120 19q55 20 83 71t28 150v1061h209l70 -17q14 -18 14 -57v-10v-985q0 -193 -57 -297q-102 -185 -386 -185h-12l-186 13l-127 22z" />
<glyph unicode="K" horiz-adv-x="1425" d="M139 84v1440h207h9q43 0 59 -17q14 -18 14 -57v-10v-533h180l363 549l49 55l63 13h271l-490 -713l582 -811v2v-2h-295h-8q-30 0 -51 14l-50 54l-434 608h-180v-676h-205q-9 -1 -17 -1q-39 0 -52 17q-15 19 -15 62v6z" />
<glyph unicode="L" horiz-adv-x="1150" d="M139 84v1440h203q8 1 16 1q40 0 54 -18t14 -57v-10v-1184h678v-256h-881q-9 -1 -17 -1q-39 0 -52 17q-15 19 -15 62v6z" />
<glyph unicode="M" horiz-adv-x="2048" d="M123 0l178 1524h338q45 0 63 -25l29 -74l303 -1118l324 1217h319q49 0 66 -25l20 -76l164 -1421v-2h-192q-55 0 -72 23q-18 29 -21 77l-116 1084l-322 -1184h-286q-47 0 -62 25q-20 27 -29 73l-303 1086l-116 -1084q-2 -52 -20 -78q-16 -22 -59 -23q-7 0 -14 1h-192z" />
<glyph unicode="N" horiz-adv-x="1593" d="M139 84v1440h336q79 0 117 -82l598 -1118v1200h182h9q43 0 59 -17q16 -20 16 -67v-1440h-321q-54 0 -93 46q-14 15 -24 38l-606 1102v-1186h-189q-9 -1 -17 -1q-39 0 -52 17q-15 19 -15 62v6z" />
<glyph unicode="O" horiz-adv-x="1554" d="M94 760.5q0 403.5 168 599.5q168 195 512 194h2q346 0 515 -195t169 -598.5t-169 -599.5t-515 -196t-514 196t-168 599.5zM397 763q0 -401 172 -511q79 -55 192 -55h15h10q126 0 207 50q162 100 162 479v36v2q0 204 -39 326q-74 233 -331 233h-9h-18q-115 0 -193 -49 q-84 -53 -126 -179t-42 -332z" />
<glyph unicode="P" horiz-adv-x="1304" d="M139 84v1448l219 4l263 4q236 0 371.5 -45t195 -155t59.5 -299t-58 -303q-59 -114 -197 -160q-136 -46 -361 -46h-10h-193v-532h-205q-9 -1 -17 -1q-39 0 -52 17q-15 19 -15 62v6zM428 760h219l189 22q68 25 96 84q25 50 25 137q0 15 -1 31v26q0 90 -24 144 q-29 59 -96 82l-189 23l-145 -2l-74 -4v-543z" />
<glyph unicode="Q" horiz-adv-x="1546" d="M94 760.5q0 403.5 168 599.5q168 195 512 195l2 -1q346 0 515 -195t169 -598.5t-169 -599.5t-515 -196t-514 196t-168 599.5zM397 763q0 -401 172 -511q79 -55 192 -55h15h10q126 0 209 51q162 101 162 491v19q-2 209 -41 332q-74 233 -331 233h-9h-18q-115 0 -193 -49 q-84 -53 -126 -179t-42 -332zM551 -117l29 15q14 9 75 28l117 15q158 -6 301 -109l121 -76q55 -29 127 -32l109 14l34 14v2v-2l76 -188l-33 -15l-82 -28l-122 -17q-101 4 -170.5 37t-124.5 74l-117 74q-55 31 -125 35l-111 -15l-28 -16z" />
<glyph unicode="R" horiz-adv-x="1378" d="M139 84v1444l217 6l269 2l368 -35q137 -37 197.5 -134t60.5 -250.5t-32.5 -234.5t-110.5 -124q-31 -16 -31 -37l6 -19l33 -24q80 -45 107 -115t28 -184l13 -379h-205h-10q-43 0 -58 16q-16 20 -16 68l-12 324q-4 102 -43 141q-37 37 -136 37h-10h-348v-586h-203 q-9 -1 -17 -1q-39 0 -52 17q-15 19 -15 62v6zM426 803h389l55 2q16 2 27 12l16 23l37 94q14 45 16 123v9q0 72 -22 128q-23 53 -85 79q-60 25 -180 25h-9h-142l-102 -4v-491z" />
<glyph unicode="S" horiz-adv-x="1169" d="M82 1053.5q0 97.5 16 160.5q24 95 85 172q124 154 429 162l224 -22l149 -41l57 -23l-73 -221l-17 -27l-24 -8l-29 6l-35 23q-41 29 -102 49l-148 21q-123 0 -184 -51.5t-61 -141.5t34.5 -132t76.5 -58q67 -26 189.5 -51t230 -75t153.5 -130q45 -82 45 -219 q0 -298 -234 -414q-123 -59 -325 -62l-220 19l-163 30l-66 17v2l39 233l61 -14l146 -22l176 -15q225 4 274 107q20 44 20 107q0 68 -37 111q-36 42 -97 62l-142 35q-162 27 -260 86q-100 55 -143 143q-45 84 -45 181.5z" />
<glyph unicode="T" horiz-adv-x="1292" d="M10 1280v244h1272v-244h-489v-1280h-209q-9 -1 -17 -1q-39 0 -53 17q-14 18 -14 58v10v1196h-490z" />
<glyph unicode="U" horiz-adv-x="1495" d="M119 586v938h205q8 1 16 1q40 0 53 -18q15 -19 15 -62v-5v-815q-1 -19 -1 -37q-1 -120 23 -198q26 -90 100 -132q74 -43 215 -43l170 21q70 18 104 35t44 34l6 49v1170h207h9q43 0 58 -18q16 -20 17 -66v-1440h-141l-62 10l-37 29l-24 27l-31 10l-25 -6l-32 -19 q-53 -29 -138 -53l-204 -25q-205 0 -325 69q-222 128 -222 530v14z" />
<glyph unicode="V" horiz-adv-x="1392" d="M-20 1524h225l71 -19q25 -16 41 -61l377 -1147l379 1147q22 78 113 80h227l-528 -1524v2v-2h-283q-95 0 -121 84z" />
<glyph unicode="W" horiz-adv-x="2080" d="M6 1524h227q51 0 68.5 -21.5t28.5 -77.5l254 -1138l254 1237h323q51 0 69.5 -25t26.5 -74l238 -1138l254 1138q10 53 29 76q18 23 69 23h224l-383 -1524v2v-2h-324q-51 0 -67.5 21.5t-26.5 76.5l-234 1145l-256 -1243h-319q-51 0 -70 25q-16 25 -29 73z" />
<glyph unicode="X" horiz-adv-x="1376" d="M10 1524h283q37 0 59 -17l39 -53l295 -477l283 477l39 55q20 14 59 15h285l-486 -758l500 -766v2v-2h-285q-35 0 -56 15t-44 55l-295 477l-293 -477l-43 -54l-55 -16h-283l496 764z" />
<glyph unicode="Y" horiz-adv-x="1298" d="M-23 1524h250l64 -15l41 -55l323 -698l320 696q16 41 41 57l63 15h240l-524 -1047v-477h-205q-9 -1 -17 -1q-39 0 -53 17q-14 18 -14 58v10v385z" />
<glyph unicode="Z" horiz-adv-x="1196" d="M63 0v117q0 39 13 73l30 64l635 1024h-663v246h1030v-127l-12 -70l-31 -59l-635 -1020h692v-248h-1059z" />
<glyph unicode="[" horiz-adv-x="714" d="M147 -135v1722h441v-219h-168v-1368h168v-219h-357q-55 0 -69 18q-16 25 -15 66z" />
<glyph unicode="\" horiz-adv-x="978" d="M0 1710h207q35 0 55 -16l35 -54l682 -1826v2v-2h-205q-37 0 -57 15t-33 54z" />
<glyph unicode="]" horiz-adv-x="714" d="M127 0h170v1368h-170v219h358q51 0 66.5 -17t15.5 -67v-1722h-440v219z" />
<glyph unicode="^" horiz-adv-x="1511" d="M119 766l559 770h166l553 -770v2v-2h-285l-356 508l-365 -508h-272z" />
<glyph unicode="_" horiz-adv-x="1261" d="M-20 -78h1304v-178h-1304v178z" />
<glyph unicode="`" horiz-adv-x="751" d="M51 1501h271l55 -6l57 -35l271 -239v2v-2h-205l-60 8q-14 5 -55 33z" />
<glyph unicode="a" d="M70 537q2 195 63 322.5t160 184.5q98 61 213 62l145 -25q66 -23 103 -47l26 -18q6 -4 12.5 -5t10.5 -3l18 10l17 24l26 27l56 10h137v-1079h-137l-56 10q-16 10 -26 27l-17 24l-18 9l-23 -7l-26 -18q-44 -26 -103 -47l-145 -25q-119 0 -219 60q-209 123 -217 504z M354 539q0 -318 242 -318q84 4 123 23l55 37l10 12l2 14v479q-26 28 -73 48l-111 22q-68 0 -123 -31q-117 -58 -125 -286z" />
<glyph unicode="b" d="M111 0v1524h186h10q49 0 63 -18q12 -16 12 -52q0 -9 -1 -20v-377l4 -27l12 -8l13 2q73 42 125 59l127 23q262 0 374 -244q57 -127 62 -319q-4 -199 -65.5 -325t-158.5 -183q-98 -61 -212 -62l-146 25q-65 21 -102 47l-27 18l-22 9l-19 -11l-16 -24l-27 -27l-55 -10h-137z M381 291q61 -61 184 -70q68 0 123 31q123 63 123 287q0 317 -240 317l-122 -22q-47 -25 -66 -50l-2 -12v-481z" />
<glyph unicode="c" horiz-adv-x="966" d="M68 535q4 381 254 507q119 59 266 60l131 -15l121 -28l82 -29l-62 -162l-22 -47q-16 -16 -41 -16l-33 6l-88 41l-82 10h-6q-109 0 -174 -74q-66 -78 -68 -251q0 -330 266 -330l129 8l148 25v2v-2l26 -213l-186 -39l-160 -15q-236 0 -367.5 135.5t-133.5 426.5z" />
<glyph unicode="d" d="M70 537q2 195 63 322.5t160 184.5q98 61 213 62l127 -23l110 -51l15 -8l12 -2l12 8l4 27v467h189h10q48 0 59 -19q13 -15 13 -54v-15v-1436h-137l-56 10q-16 10 -26 27l-17 24l-18 9l-23 -7l-26 -18q-44 -26 -103 -47l-145 -25q-119 0 -219 60q-209 123 -217 504z M354 539q0 -318 242 -318q84 4 123 23l55 37l10 12l2 14v479q-26 28 -73 48l-111 22q-68 0 -123 -31q-117 -58 -125 -286z" />
<glyph unicode="e" horiz-adv-x="1114" d="M70 541q4 268 135 414t373 151q280 0 401 -174q57 -84 57 -193.5t-26.5 -168t-69.5 -93.5q-61 -45 -164 -67l-223 -21l-88 4l-76 8l-33 2q18 -119 96 -165q75 -44 205 -43h11l133 10l119 20l49 11l26 -209l-184 -37l-184 -17q-281 0 -419 138.5t-138 429.5zM348 588 l86 -8l98 -7l134 15q53 16 75 41l23 41l8 51v11q0 66 -43 110q-47 47 -145 49v2v-2q-84 0 -135 -43t-75 -114t-26 -146z" />
<glyph unicode="f" horiz-adv-x="763" d="M29 868v211h145v115v17q0 175 77 255q81 84 259 84l127 -8l113 -22l-17 -211l-26 4l-62 8l-72 4q-80 0 -107 -37q-26 -34 -26 -93v-9v-107h271v-211h-267v-868h-184q-8 -1 -16 -1q-42 0 -56 19q-14 22 -14 62v10v778h-145z" />
<glyph unicode="g" d="M70 537q2 195 63 322.5t160 184.5q98 61 213 62l145 -25q66 -23 103 -47l26 -18q6 -4 12.5 -5t10.5 -3l18 10l17 24l26 27l56 10h137v-1081q0 -323 -207 -420q-98 -49 -232 -49q-214 7 -350 102l-84 74l146 156l100 -68q63 -31 158 -35h15q185 0 185 189v76l-2 26 q-2 8 -14 8l-12 -2l-15 -8q-45 -29 -110 -51l-127 -23q-119 0 -219 60q-211 118 -219 504zM354 539q0 -318 242 -318q84 4 123 23l55 37l10 12l2 14v479q-26 28 -73 48l-111 22q-68 0 -123 -31q-117 -58 -125 -286z" />
<glyph unicode="h" horiz-adv-x="1144" d="M111 90v1434h186q8 1 16 1q39 -1 53 -19q15 -19 15 -61v-11v-377l4 -27l12 -8l13 2q73 42 125 59l129 23q115 0 202 -39q179 -81 181 -358v-709h-183q-8 -1 -16 -1q-42 -1 -56 19q-16 21 -16 67v5v576v9q0 99 -43 140q-45 41 -140 41h-9v2v-2l-129 -22l-62 -35l-12 -15 v-784h-184q-8 -1 -16 -1q-42 0 -56 19q-14 22 -14 62v10z" />
<glyph unicode="i" horiz-adv-x="501" d="M113 1276v248h282v2v-250h-282zM117 90v989h188h9q44 0 59 -18q14 -22 14 -63v-11v-987h-184q-8 -1 -16 -1q-40 0 -56 19q-14 22 -14 62v10z" />
<glyph unicode="j" horiz-adv-x="514" d="M-94 -449l20 209l19 -2l75 -4q66 0 87.5 28t21.5 83v1214h193q45 0 61 -19t16 -63v-1124v-11q0 -158 -57 -242q-59 -87 -215 -91l-102 6l-84 10zM123 1276v248h283v2v-250h-283z" />
<glyph unicode="k" horiz-adv-x="1118" d="M111 90v1434h186h9q48 0 62 -18t13 -61v-11v-713h119l192 293q39 65 105 65h252l-324 -477l391 -602v2v-2h-254l-57 12q-29 16 -51 54l-260 403h-113v-469h-184q-8 -1 -16 -1q-42 0 -56 19q-14 22 -14 62v10z" />
<glyph unicode="l" horiz-adv-x="591" d="M111 324v1200h186h9q48 0 62 -18t13 -61v-11v-1098v-11q0 -55 18 -85q20 -33 80 -33l94 6v2v-2l15 -211l-76 -14l-133 -8q-147 0 -209 86q-59 85 -59 247v11z" />
<glyph unicode="m" horiz-adv-x="1767" d="M111 90v989h137l55 -10l27 -27l16 -24l19 -8l22 6l27 18l98 47l135 25q111 -4 172.5 -29t95.5 -57l31 -27q8 -8 19 -8l10 2l84 53q37 19 71 35l164 31q115 0 200 -39q175 -80 175 -358v-709h-182q-8 -1 -16 -1q-42 0 -56 19q-16 23 -16 72v576v10q0 98 -40 139t-133 41 h-9v2v-2l-119 -22l-60 -35l-12 -15v-784h-184q-8 -1 -16 -1q-42 0 -56 19q-14 22 -14 62v10v576q0 106 -43 149q-41 41 -133 41h-9l-118 -22l-60 -35l-12 -15v-784h-186q-8 -1 -15 -1q-40 0 -55 19q-14 22 -14 62v10z" />
<glyph unicode="n" horiz-adv-x="1144" d="M111 90v989h137l55 -10l27 -27l16 -24l19 -8l22 6l27 18q45 27 102 47l148 25q115 0 202 -39q179 -81 181 -358v-709h-183q-8 -1 -16 -1q-42 -1 -56 19q-16 21 -16 67v5v576v9q0 99 -43 140q-45 41 -140 41h-9l-129 -22l-62 -35l-12 -15v-784h-184q-8 -1 -16 -1 q-42 0 -56 19q-14 22 -14 62v10z" />
<glyph unicode="o" horiz-adv-x="1193" d="M68 541q4 178 68 305q131 258 462 262q331 -8 463 -264q65 -125 65 -298v-5q-2 -272 -141 -418.5t-387 -149.5q-252 4 -390 149.5t-140 418.5zM344 536q0 -158 62 -239q59 -84 192 -84t195 84q61 78 61 222v22v2v18q0 144 -61 223q-61 84 -195 84q-133 0 -193 -85 q-61 -86 -61 -247z" />
<glyph unicode="p" d="M111 -285v1364h135l55 -10l27 -27l16 -24q8 -8 18 -8l23 6l27 18q37 26 102 47l145 25q119 0 220 -59q209 -123 219 -504q-4 -199 -65.5 -325t-161 -185t-209.5 -60l-127 23q-56 19 -125 59l-13 2q-10 0 -12 -8l-4 -26v-398h-184q-59 0 -73 19q-13 18 -13 59v12zM381 291 q61 -61 184 -70q68 0 123 31q123 63 123 287q0 317 -240 317l-122 -22q-47 -25 -66 -50l-2 -12v-481z" />
<glyph unicode="q" d="M70 537q2 195 63 322.5t160 184.5q98 61 213 62l145 -25q66 -23 103 -47l26 -18q6 -4 12.5 -5t10.5 -3l18 10l17 24l26 27l56 10h137v-1454h-185q-57 0 -72 21q-14 19 -14 63v6v308l-4 26q-2 8 -12 8l-12 -2l-15 -8q-45 -29 -110 -51l-127 -23q-119 0 -219 60 q-209 123 -217 504zM354 539q0 -318 242 -318q84 4 123 23l55 37l10 12l2 14v479q-26 28 -73 48l-111 22q-68 0 -123 -31q-117 -58 -125 -286z" />
<glyph unicode="r" horiz-adv-x="759" d="M111 90v991v-2h137l55 -10l27 -27l16 -24l19 -8l22 6l27 18q35 25 100 47l141 25l41 -4l21 -4v-264l-43 8l-92 10l-125 -23q-50 -19 -76 -47v-782h-186q-8 -1 -15 -1q-40 0 -55 19q-14 22 -14 62v10z" />
<glyph unicode="s" horiz-adv-x="935" d="M70 750v12q0 209 178 293q98 47 284 51l187 -23l149 -43l-65 -174l-23 -39q-12 -14 -28 -14l-39 14l-39 21l-72 22l-82 9q-200 0 -196 -109q0 -57 55 -82t151 -41q180 -27 273 -104q90 -78 90 -219v-6q0 -176 -108 -260q-110 -86 -343 -85l-94 7l-135 18q-74 12 -141 31 v2l28 205l86 -17l133 -18l130 -6h13q82 0 124 24q44 28 44 85q0 54 -44 85l-156 47q-93 14 -182 50q-178 73 -178 264z" />
<glyph unicode="t" horiz-adv-x="765" d="M23 868v211h145v209l270 68v-277h267v-211h-267v-528q0 -68 29 -102q27 -37 104 -37l72 4l59 8l25 4v2v-2l18 -211l-112 -24l-131 -9q-178 0 -256 86t-78 273v536h-145z" />
<glyph unicode="u" horiz-adv-x="1134" d="M98 371v708h187q8 1 15 1q41 0 54 -20q15 -22 15 -67v-6v-571q0 -109 43 -154q40 -42 129 -42q39 0 87 8q31 5 54 16l59 37l13 16l2 14v768h184q8 1 16 1q42 0 56 -19q14 -22 14 -63v-11v-987h-139l-53 10l-29 27l-17 24l-16 9l-22 -7l-29 -18q-33 -23 -100 -47l-148 -25 q-239 0 -326 162q-47 86 -49 236z" />
<glyph unicode="v" horiz-adv-x="1048" d="M-20 1079h221q51 0 69 -20l31 -60l215 -733l215 733q10 43 28.5 61.5t71.5 18.5h218l-369 -1079v2v-2h-252q-89 0 -109 84z" />
<glyph unicode="w" horiz-adv-x="1638" d="M-12 1079h196q53 0 74 -20l25 -60l174 -735l182 815h254q53 0 72.5 -20t25.5 -60l164 -737l170 737q6 39 25.5 59.5t74.5 20.5h191l-293 -1079v2v-2h-270q-53 0 -71.5 19t-25.5 59l-153 721l-174 -799h-267q-51 0 -70 20t-28 58z" />
<glyph unicode="x" horiz-adv-x="1060" d="M0 1079h240l59 -12q27 -14 47 -53l184 -314l175 314q35 65 102 65h8h238l-328 -538l336 -541v2v-2h-238l-63 12q-29 16 -49 54l-181 311l-180 -311q-20 -39 -47 -54l-61 -12h-240l332 541z" />
<glyph unicode="y" horiz-adv-x="1134" d="M98 371v708h185q8 1 15 1q41 0 56 -19q15 -24 15 -68v-6v-571q0 -109 43 -154q39 -41 129 -41h16v2v-2q86 4 125 23l59 37l13 16l2 14v768h184q8 1 16 1q42 0 56 -19q14 -22 14 -63v-11v-967q-8 -350 -211 -444q-104 -47 -233 -47l-179 27q-75 27 -129 59l-77 57l-27 27 l141 154l33 -27q43 -27 90 -47l133 -25h7q76 0 128 39q53 43 56 144v86l-4 26l-13 8l-14 -2q-73 -42 -125 -59l-127 -23q-241 0 -328 162q-47 86 -49 236z" />
<glyph unicode="z" horiz-adv-x="952" d="M78 0v119q0 35 12 69l31 60l399 596h-428v235h764v-129l-12 -63l-29 -56l-399 -595h450v-236h-788z" />
<glyph unicode="{" horiz-adv-x="751" d="M88 586v196q63 18 88 64q27 41 27 96v414q-4 49 13 105t69 89q51 33 166 37h176v-219h-117l-31 -10q-10 -10 -10 -33v-326q0 -113 -18 -171t-68 -91l-39 -26l-12 -25q0 -16 12 -29l39 -26q49 -31 67.5 -91t18.5 -171v-326q0 -43 41 -43h117v-219h-176q-207 7 -236 125 q-16 53 -12 108v412q0 125 -115 160z" />
<glyph unicode="|" horiz-adv-x="507" d="M129 -291v2026h168q51 0 68 -19q16 -20 16 -65v-2026h-168q-55 0 -70.5 19.5t-13.5 64.5z" />
<glyph unicode="}" horiz-adv-x="751" d="M127 0h115q43 0 45 43v326q-2 109 16 170t68 92l39 26l12 29l-12 25l-39 26q-49 33 -67.5 93t-16.5 169v326l-13 33l-32 10h-115v219h178q113 -4 164 -37t63 -74q23 -73 19 -120v-414q-4 -53 23.5 -97t89.5 -63v-196q-59 -18 -89 -62q-29 -43 -24 -98v-412 q10 -141 -78 -196q-51 -33 -168 -37v2v-2h-178v219z" />
<glyph unicode="~" horiz-adv-x="1329" d="M119 436v230q94 63 184 86l152 20q113 -5 170 -29l137 -55q52 -22 133 -29l96 7q80 14 133.5 46.5t87.5 55.5v2v-231q-99 -69 -186 -88l-154 -19q-108 5 -167 29l-138 53q-58 25 -135 29l-94 -6l-98 -29q-42 -16 -121 -72z" />
<glyph unicode="&#xa0;" horiz-adv-x="587" d="M0 0v2v-2z" />
<glyph unicode="&#xa1;" horiz-adv-x="534" d="M129 899v252h303v-252h-303zM145 -291v1045h189q51 2 67 -17.5t17 -66.5v-1045h-191q-53 0 -68 19.5t-14 64.5z" />
<glyph unicode="&#xa2;" horiz-adv-x="966" d="M68 535q8 458 358 546v213h168q55 0 70 -20q14 -20 12 -72v-108l145 -31l101 -33l-62 -162l-22 -47q-16 -18 -39 -18l-35 6l-86 41l-84 12q-113 2 -180 -74q-66 -78 -67 -242.5t61.5 -250.5t203.5 -88l129 10l150 25l24 -215l-131 -29l-112 -16v-215h-164q-55 0 -70.5 20 t-15.5 70v133q-346 68 -354 545z" />
<glyph unicode="&#xa3;" horiz-adv-x="1224" d="M86 0v231h168q25 98 33 179l6 151l-4 53l-4 62h-160v231h137l-4 72l-2 76q0 236 120 361.5t384 129.5l217 -20l131 -35l45 -18l-74 -199l-18 -29l-25 -8q-14 0 -28 8l-39 23q-43 27 -95 39l-108 10q-123 4 -182 -61t-60 -205l2 -72l4 -72h388v-231h-365l2 -51l2 -62 l-6 -149l-27 -183h680v-231h-1118z" />
<glyph unicode="&#xa4;" horiz-adv-x="1257" d="M94 301l146 141q-60 106 -66 238q0 148 64 238l-144 141l148 155l147 -149q80 39 127 53l115 17l121 -17q63 -14 118 -49l148 145l147 -155l-145 -144q65 -108 65 -235t-69 -238l149 -141l-147 -156l-146 146q-49 -35 -110 -49l-131 -19l-115 19q-59 14 -125 53 l-149 -150zM387 680q0 -68 34 -123q75 -121 210 -121v2v-2q70 0 123 33q120 75 118 213q0 72 -34.5 126t-89.5 84t-122 30q-133 0 -206 -121q-33 -53 -33 -121z" />
<glyph unicode="&#xa5;" horiz-adv-x="1280" d="M43 1524h233l68 -13l39 -57l264 -709l260 707q12 45 37 59l68 13h225l-250 -572h170v-219h-264l-59 -141h323v-219h-371v-373h-204q-53 -4 -70 16q-16 20 -14 68v289h-377v219h325l-59 141h-266v219h168z" />
<glyph unicode="&#xa6;" horiz-adv-x="477" d="M129 -291v793h168q51 2 68 -19q16 -20 16 -67v-791h-168q-55 0 -70.5 19.5t-13.5 64.5zM129 946v789h168q51 0 68 -19q16 -20 16 -65v-791h-168q-53 -4 -69.5 17.5t-14.5 68.5z" />
<glyph unicode="&#xa7;" horiz-adv-x="1138" d="M117 -168l37 197l110 -27l125 -25l115 -10q111 -2 181.5 32t72.5 122q2 37 -17 69l-61 56l-135 39q-195 35 -291 113.5t-96 230.5q-2 70 30 145q33 76 107 137q-57 47 -83 109q-61 144 11 307q39 92 140 151.5t288 61.5l172 -16q86 -14 170 -47l-61 -160l-23 -39 q-12 -12 -26 -10l-29 8l-45 24l-72 25l-84 10q-213 0 -213 -161q0 -105 99 -140l123 -33q188 -43 276 -124q85 -83 86 -222v-2q-8 -157 -121 -274q107 -88 107 -260t-126 -268t-380 -97l-131 13l-140 28zM408.5 651.5q1.5 -49.5 27.5 -82.5q29 -31 76 -49l119 -35l22 -4 l31 -8l18 -4q72 64 72 168q2 35 -14 70l-62 55q-45 27 -120 41l-41 8l-37 10q-49 -27 -71 -73.5t-20.5 -96z" />
<glyph unicode="&#xa8;" horiz-adv-x="761" d="M37 1245v240h268v-240h-268zM461 1245v240h268v-240h-268z" />
<glyph unicode="&#xa9;" horiz-adv-x="1808" d="M104 758q8 343 230 565q216 226 571 236q229 -2 409.5 -104.5t283 -281.5t106.5 -417q-2 -164 -62 -310q-120 -296 -421 -426q-141 -59 -316 -63q-231 2 -412 104t-282 281q-104 180 -107 416zM270 756q0 -279 182 -466q56 -59 128 -100q145 -84 324 -83t322.5 83.5 t226.5 230t87 335.5q-3 285 -184 470q-178 183 -451 183q-182 -4 -325 -86q-141 -84 -226 -231q-84 -147 -84 -336zM526 762q4 302 183 407q84 47 194 48l141 -17l105 -29l41 -16l-45 -135l-12 -19l-19 -4l-18 4l-19 13q-35 25 -73 37l-97 12q-94 2 -153 -66t-60.5 -208 t23.5 -207q47 -127 211 -121l110 8l119 23l25 -138v-2l-135 -28l-138 -15q-193 -2 -287.5 106t-95.5 347z" />
<glyph unicode="&#xaa;" horiz-adv-x="808" d="M57 1150q4 245 162 335q70 39 150 39l75 -13l74 -30l25 -4l22 14q10 10 27 14l41 4h69v-729h-77l-35 6l-27 19l-31 16q-10 2 -30 -10l-68 -29l-82 -8q-171 0 -254 162q-43 82 -41 214zM265 1155q-1 -98 34 -151t100 -54l56 8l32 17l11 10l6 21v284l-4 17l-11 14l-34 18 l-49 7q-57 2 -99 -46q-41 -47 -42 -145z" />
<glyph unicode="&#xab;" horiz-adv-x="1259" d="M63 739l293 416l54 45l67 12h199l-334 -460l346 -488h-217q-41 -4 -66 9t-55 51zM555 743l293 412q20 31 51 45l68 12h198l-334 -460l347 -488v2v-2h-217l-70 12q-25 10 -51 48z" />
<glyph unicode="&#xac;" horiz-adv-x="1064" d="M113 449v227h757q53 4 70 -17q16 -20 14 -67v-393h-153q-53 0 -68 18q-16 25 -14 68v164h-606z" />
<glyph unicode="&#xad;" horiz-adv-x="847" d="M100 446v234h648v-234h-648z" />
<glyph unicode="&#xae;" horiz-adv-x="1806" d="M104 756q4 332 230 567q216 226 567 236q233 -4 410 -107q180 -100 283.5 -281.5t107.5 -414.5q-4 -225 -106.5 -402.5t-282.5 -284.5t-412 -112q-229 2 -407 104q-182 100 -283.5 281.5t-106.5 413.5zM268 756q4 -195 85 -338t225 -228q145 -84 324 -83t322.5 83.5 t226.5 230t87 335.5q-3 285 -184 470q-178 183 -453 183q-178 -2 -323 -86q-143 -86 -224.5 -230t-85.5 -337zM594 389v809l84 2l104 4h70l217 -20q148 -43 146 -212q-1 -77 -18 -130t-56 -80l-19 -12l-8 -13l4 -10l19 -10q45 -27 59 -66l14 -104l9 -215h-103l-43 10 q-14 8 -18 39l-4 176q0 53 -25 78q-29 23 -88 22h-182v-325h-109q-29 0 -41 12t-12 45zM756 801h211l37 4l18 12l22 47l9 74v2q4 96 -66 111l-110 12l-74 -2h-47v-260z" />
<glyph unicode="&#xaf;" horiz-adv-x="714" d="M47 1270v172h623v-172h-623z" />
<glyph unicode="&#xb0;" horiz-adv-x="890" d="M96 1202q2 152 96.5 246t253 96t253 -82t98.5 -260q-4 -160 -97.5 -249t-250.5 -92t-254 81q-96 84 -99 260zM295 1202q0 -84 43 -127q45 -41 108 -41v2v-2q63 0 109 41q41 41 45 127q-4 86 -45 127q-45 41 -109 41q-63 0 -108 -41q-43 -43 -43 -127z" />
<glyph unicode="&#xb1;" horiz-adv-x="1105" d="M113 33v227h882v-227h-882zM113 649v219h319v262h158q53 0 69 -18q16 -25 15 -65v-179h321v-219h-321v-262h-158q-53 0 -68 19.5t-16 64.5v178h-319z" />
<glyph unicode="&#xb2;" horiz-adv-x="774" d="M90 723v117q7 141 113 215q59 38 105 61q82 42 127.5 75.5t45.5 85.5q0 99 -139 97l-96 -12l-74 -23l-31 -12l-43 158l37 16l92 29l127 16q323 0 330 -252q0 -111 -57 -174t-162 -112l-125 -72q-49 -35 -49 -86v-23h385v-172h-520q-41 0 -54 15q-12 14 -12 53z" />
<glyph unicode="&#xb3;" horiz-adv-x="802" d="M86 696v2v-2l43 158l29 -10l78 -21l106 -10q168 0 168 105q4 106 -197 106h-51v164h47q104 4 143.5 31t35 72.5t-34.5 66.5l-95 20l-88 -12l-73 -23l-31 -12l-41 162l35 14l92 25l117 14l157 -20q157 -45 164 -209q-2 -63 -26 -103l-60 -59l-22 -16l-9 -19l5 -10l24 -14 q109 -56 109 -195q2 -68 -33 -129q-81 -125 -326 -129l-137 14l-94 25z" />
<glyph unicode="&#xb4;" horiz-adv-x="751" d="M47 1221l270 239q37 29 58 35l53 6h272v2v-2l-333 -239q-16 -10 -29.5 -19.5t-28.5 -13.5l-57 -8h-205z" />
<glyph unicode="&#xb5;" horiz-adv-x="1187" d="M113 -291v1370h188q51 2 66.5 -15t15.5 -69v-581q-2 -113 46 -160t146.5 -45t147.5 23t61 38l15 19v790h190q51 2 68 -16q16 -20 16 -68v-995h-139l-53 10q-18 8 -29 27l-16 24l-17 9l-22 -9l-29 -16q-33 -23 -100 -47l-146 -25v2v-2l-80 15q-41 16 -59 41v-404h-186 q-57 0 -72.5 18.5t-11.5 65.5z" />
<glyph unicode="&#xb6;" horiz-adv-x="1464" d="M252 1130q0 154 53 244q55 90 172 128t307 38l183 -2l161 -4v-1722h-90l-32 12q-10 14 -11 37v1546h-123v-1288q4 -219 -79 -281q-47 -37 -129 -37l-76 4l-80 13l10 102l57 -6h27q76 -2 107 42t30 140v602q-176 4 -282.5 47t-155.5 138q-49 94 -49 247z" />
<glyph unicode="&#xb7;" horiz-adv-x="487" d="M86 625v270h311v-270h-311z" />
<glyph unicode="&#xb8;" horiz-adv-x="520" d="M53 -412l23 95q4 39 49 41l33 -7l39 -4l53 8q20 8 20 33.5t-28 38.5l-86 14l34 228l166 2l-16 -139q122 -23 129 -146q-2 -94 -68 -143t-182 -49l-86 6q-49 6 -80 20v2z" />
<glyph unicode="&#xb9;" horiz-adv-x="485" d="M94 1356v168h232q39 2 53 -15l12 -53v-811h-135q-39 0 -53 14q-12 14 -13 54v643h-96z" />
<glyph unicode="&#xba;" horiz-adv-x="800" d="M57 1147.5q2 181.5 94.5 278.5t255.5 97.5t249.5 -96t91.5 -278.5q-4 -182 -97.5 -278.5t-257.5 -96.5t-250 98q-88 94 -86 275.5zM264 1149q0 -102 33 -150q35 -47 104 -47v2v-2q70 0 105 47q33 47 33 150q0 102 -33 149q-35 47 -105 48q-70 0 -103.5 -47.5 t-33.5 -149.5z" />
<glyph unicode="&#xbb;" horiz-adv-x="1259" d="M74 1212h219l67 -12l52 -49l284 -420l-293 -412q-20 -29 -51 -43l-69 -12v2v-2h-197l334 461zM565 1212h215l68 -12q29 -16 53 -49l287 -416l-295 -416q-23 -31 -49 -43l-70 -12h-199l334 461z" />
<glyph unicode="&#xbc;" horiz-adv-x="1638" d="M102 1356v168h232q39 2 52 -14.5t13 -53.5v-811h-135q-39 0 -53 14q-12 14 -12 54v643h-97zM168 -68l922 1557q25 37 45 53q23 16 61 17h184l-925 -1557l-45 -53q-23 -16 -62 -17h-180zM940 203v100q0 129 109 240l96 86q68 49 119 106q47 57 51 144h139l55 -13l13 -51 q-4 -59 -33 -110l-78 -95l-100 -78l-121 -102q-49 -49 -53 -111v-18h211v150h129l53 -13q12 -16 12 -53v-385h-129q-39 -2 -53 13t-12 55v69h-340q-41 0 -56 15q-14 14 -12 51z" />
<glyph unicode="&#xbd;" horiz-adv-x="1761" d="M111 1356v168h231l53 -15q12 -16 13 -53v-811h-136q-39 0 -53 14t-14 54v643h-94zM156 -68l919 1557l45 53q27 16 64 17h184l-926 -1557l-45 -53q-23 -16 -61 -17v2v-2h-180zM1071 68v116q4 142 113 213l235 138q45 33 45 85q0 97 -141 97l-96 -12l-76 -23l-29 -12 l-41 157l37 17l90 28l127 17q323 0 330 -252q0 -136 -100 -213l-119 -72q-78 -35 -125 -70.5t-47 -86.5v-23h385v-172h-520q-39 -2 -53.5 13t-14.5 55z" />
<glyph unicode="&#xbe;" horiz-adv-x="1806" d="M84 696l43 158l63 -20l150 -21q168 0 168 105q4 106 -197 106h-51v164h47q104 4 143.5 31t35 72.5t-34.5 66.5q-33 20 -95 20l-88 -12l-73 -23l-31 -12l-41 162l35 14l92 25l115 14l159 -20q157 -45 164 -209q-4 -120 -86 -162l-22 -16l-9 -19l4 -10l25 -14 q57 -25 83 -70t27 -119t-34 -135q-81 -125 -326 -129l-137 14l-94 25zM360 -68l922 1557q25 37 45 53q23 16 62 17h184l-924 -1557l-45 -53q-27 -16 -63 -17h-181zM1108 203v100q0 129 109 240l180 155l61 80q25 43 25 101h139l53 -13q14 -12 13.5 -60t-31.5 -99l-80 -95 l-98 -80q-72 -49 -121 -100t-53 -113v-18h208v150h132l55 -13q12 -16 12 -53v-385h-131q-39 -2 -53 13t-15 55v69h-337q-41 0 -56 15q-14 14 -12 51z" />
<glyph unicode="&#xbf;" horiz-adv-x="1144" d="M78 39q4 125 36 198q55 125 224 207q71 34 120 62q113 62 111 188v68v-2h191q51 0 67 -19.5t15 -64.5v-43q0 -94 -39 -154.5t-91 -94.5q-82 -55 -153 -90.5t-110 -63.5q-76 -55 -76 -162q0 -146 127 -191l125 -22l147 22l88 45l37 21l27 6l24 -8l15 -29l67 -219l-55 -23 l-148 -41l-219 -20q-328 0 -461 188q-66 94 -69 242zM553 903v252h305v-252h-305z" />
<glyph unicode="&#xc0;" horiz-adv-x="1474" d="M12 0l563 1524h271l65 -13l37 -59l518 -1452h-229l-66 12q-20 12 -36 60l-76 223h-643l-80 -223q-16 -47 -37 -60l-66 -12v2v-2h-221zM254 1946h272l56 -7q25 -6 57 -32l270 -242h-204l-60 8l-57 33zM487 530h502l-244 770z" />
<glyph unicode="&#xc1;" horiz-adv-x="1474" d="M12 0l563 1524h271l65 -13l37 -59l518 -1452h-229l-66 12q-20 12 -36 60l-76 223h-643l-80 -223q-16 -47 -37 -60l-66 -12v2v-2h-221zM487 530h502l-244 770zM567 1665l271 242q29 27 55 32l55 7h273l-334 -240l-58 -33l-57 -8h-205z" />
<glyph unicode="&#xc2;" horiz-adv-x="1474" d="M12 0l563 1524h271l65 -13l37 -59l518 -1452h-229l-66 12q-20 12 -36 60l-76 223h-643l-80 -223q-16 -47 -37 -60l-66 -12v2v-2h-221zM319 1665l334 281h117l55 -7l56 -34l282 -240h-221l-59 8l-58 33l-92 74l-92 -74l-57 -33l-60 -8h-205zM487 530h502l-244 770z" />
<glyph unicode="&#xc3;" horiz-adv-x="1474" d="M12 0l563 1524h271l65 -13l37 -59l518 -1452h-229l-66 12q-20 12 -36 60l-76 223h-643l-80 -223q-16 -47 -37 -60l-66 -12v2v-2h-221zM408 1665v123l8 45l30 37q43 35 89 49l83 14l111 -22l82 -39q31 -16 74 -21l69 13l123 75v-122l-8 -43l-33 -37q-41 -35 -86 -49 l-84 -15q-68 4 -108 21l-80 39q-35 16 -76 20l-70 -12zM487 530h502l-244 770z" />
<glyph unicode="&#xc4;" horiz-adv-x="1474" d="M12 0l563 1524h271l65 -13l37 -59l518 -1452h-229l-66 12q-20 12 -36 60l-76 223h-643l-80 -223q-16 -47 -37 -60l-66 -12v2v-2h-221zM397 1696v239h269v-239h-269zM487 530h502l-244 770zM821 1696v239h269v-239h-269z" />
<glyph unicode="&#xc5;" horiz-adv-x="1474" d="M12 0l494 1296q-68 61 -70 164q4 123 84 188t225 64q145 0 228 -65q80 -66 80 -174.5t-64 -172.5l477 -1300h-229l-66 12q-20 12 -36 60l-76 223h-643l-80 -223q-16 -47 -37 -60l-66 -12h-221zM487 530h502l-229 680h-31zM614 1460q8 -112 131 -110q123 0 129 110v2 q-1 111 -129 111q-127 0 -131 -113z" />
<glyph unicode="&#xc6;" horiz-adv-x="2029" d="M-4 0l461 1313q27 90 78 137t145 61l258 13h971v-244h-617v-389h568v-240h-568v-401h643v-250h-848q-53 -4 -69 16t-14 68v571h-27l-252 -26q-109 -27 -191 -93.5t-118 -173.5l-97 -292l-34 -54q-20 -16 -58 -16h-231zM545 752q0 4 40 27q182 105 398 108h21v399v-2h-80 l-121 -8q-47 -10 -61 -30q-26 -34 -46 -83z" />
<glyph unicode="&#xc7;" horiz-adv-x="1294" d="M90 768q4 535 318 707q145 82 337 81l236 -26l176 -47l72 -27l-80 -209l-21 -28q-10 -10 -26 -11l-29 9l-35 20q-53 37 -123 61l-165 25q-227 4 -314 -227q-47 -123 -48 -329q-2 -407 167 -499q88 -53 233 -49l164 10l142 19l88 16v2v-2l35 -223l-97 -25l-159 -26 l-191 -15l-8 -77q122 -21 129 -146q-2 -94 -68 -143t-182 -49l-86 6l-80 20l23 97q2 18 14 30l37 11l33 -7l36 -4l54 8q20 8 20 33.5t-28 38.5l-86 14l24 179q-172 23 -285 110q-227 180 -227 672z" />
<glyph unicode="&#xc8;" horiz-adv-x="1261" d="M139 84v1440h1002v-244h-715v-383h668v-240h-668v-407h743v-250h-946q-53 -4 -69 16t-15 68zM221 1946h273l55 -7l55 -32l270 -242v2v-2h-202l-60 8l-57 33z" />
<glyph unicode="&#xc9;" horiz-adv-x="1261" d="M139 84v1440h1002v-244h-715v-383h668v-240h-668v-407h743v-250h-946q-53 -4 -69 16t-15 68zM410 1665l270 242q33 27 57 32l56 7h270v2v-2l-332 -240l-57 -33l-60 -8h-204z" />
<glyph unicode="&#xca;" horiz-adv-x="1261" d="M139 84v1440h1002v-244h-715v-383h668v-240h-668v-407h743v-250h-946q-53 -4 -69 16t-15 68zM227 1665l334 281h117l55 -7l55 -34l283 -240v2v-2h-221l-59 8q-33 10 -58 33l-90 74l-94 -74l-57 -33l-60 -8h-205z" />
<glyph unicode="&#xcb;" horiz-adv-x="1261" d="M139 84v1440h1002v-244h-715v-383h668v-240h-668v-407h743v-250h-946q-53 -4 -69 16t-15 68zM297 1696v239h268v-239h-268zM721 1696v239h268v-239h-268z" />
<glyph unicode="&#xcc;" horiz-adv-x="569" d="M-209 1946h272l56 -7q27 -6 55 -32l270 -242v2v-2h-204l-58 8q-14 4 -27.5 13.5t-29.5 19.5zM139 84v1440h209q51 2 68 -17q16 -20 14 -67v-1440h-207q-53 -4 -69 16t-15 68z" />
<glyph unicode="&#xcd;" horiz-adv-x="569" d="M106 1665l275 242l55 32l56 7h272v2v-2l-334 -240l-57 -33l-60 -8h-207zM139 84v1440h209q51 2 68 -17q16 -20 14 -67v-1440h-207q-53 -4 -69 16t-15 68z" />
<glyph unicode="&#xce;" horiz-adv-x="569" d="M-135 1665l334 281h116l56 -7l55 -34l281 -240v2v-2h-220l-61 8l-57 33l-90 74l-95 -74l-55 -33l-59 -8h-205zM139 84v1440h209q51 2 68 -17q16 -20 14 -67v-1440h-207q-53 -4 -69 16t-15 68z" />
<glyph unicode="&#xcf;" horiz-adv-x="569" d="M-59 1696v239h268v-239h-268zM139 84v1440h209q51 2 68 -17q16 -20 14 -67v-1440h-207q-53 -4 -69 16t-15 68zM362 1696v239h269v-239h-269z" />
<glyph unicode="&#xd0;" horiz-adv-x="1474" d="M-18 659v230h157v645l115 2l180 2l205 2q233 0 379 -40t224 -128q146 -163 138 -608q2 -225 -29.5 -373.5t-115.5 -238.5t-238 -128t-395 -36l-137 2l-135 4l-107 6q-55 4 -70 21t-14 63v575h-157zM430 233l45 -2l84 -2h100l213 21q88 23 133.5 81t63.5 162.5t18 274.5 t-18 275.5t-63 163.5t-134 81l-213 19h-94l-84 -2l-51 -2v-414h260v-230h-260v-426z" />
<glyph unicode="&#xd1;" horiz-adv-x="1593" d="M139 84v1440h336q79 0 117 -82l598 -1118v1200h182q51 2 68 -17q16 -20 16 -67v-1440h-321q-54 0 -93 46q-14 15 -24 38l-606 1102v-1186h-189q-53 -4 -69 16t-15 68zM483 1665v123q-2 23 9 45l30 37q39 33 88 49l82 14l111 -22l82 -39q35 -16 76 -21l43 4q51 15 147 84 v-122l-8 -43l-31 -39q-39 -31 -88 -47l-82 -15l-111 21l-79 39q-31 16 -74 20l-72 -12q-36 -14 -123 -76z" />
<glyph unicode="&#xd2;" horiz-adv-x="1556" d="M94 760q0 406 169 599.5t519 193t517 -195t163 -597.5q4 -403 -163 -599t-518 -196t-519 195t-168 600zM326 1946h272l53 -7q29 -6 58 -32l272 -242v2v-2h-207l-57 8q-14 4 -27.5 13.5t-30.5 19.5zM397 764.5q0 -396.5 167 -500.5q85 -53 219 -55t219 50t123 171t38 329 t-39 327.5t-125 175.5q-90 53 -222 53t-216 -52q-164 -102 -164 -498.5z" />
<glyph unicode="&#xd3;" horiz-adv-x="1556" d="M94 760q0 406 169 599.5t519 193t517 -195t163 -597.5q4 -403 -163 -599t-518 -196t-519 195t-168 600zM397 764.5q0 -396.5 167 -500.5q85 -53 219 -55t219 50t123 171t38 329t-39 327.5t-125 175.5q-90 53 -222 53t-216 -52q-164 -102 -164 -498.5zM565 1665l271 242 q33 27 55 32l55 7h273v2v-2l-332 -240l-60 -33l-57 -8h-205z" />
<glyph unicode="&#xd4;" horiz-adv-x="1556" d="M94 760q0 406 169 599.5t519 193t517 -195t163 -597.5q4 -403 -163 -599t-518 -196t-519 195t-168 600zM360 1665l334 281h121l53 -7l58 -34l280 -240v2v-2h-221l-59 8l-58 33l-92 74l-92 -74q-25 -23 -57 -33l-60 -8h-207zM397 764.5q0 -396.5 167 -500.5 q85 -53 219 -55t219 50t123 171t38 329t-39 327.5t-125 175.5q-90 53 -222 53t-216 -52q-164 -102 -164 -498.5z" />
<glyph unicode="&#xd5;" horiz-adv-x="1556" d="M94 760q0 406 169 599.5t519 193t517 -195t163 -597.5q4 -403 -163 -599t-518 -196t-519 195t-168 600zM397 764.5q0 -396.5 167 -500.5q85 -53 219 -55t219 50t123 171t38 329t-39 327.5t-125 175.5q-90 53 -222 53t-216 -52q-164 -102 -164 -498.5zM442 1665v123l11 45 l30 37l88 49l84 14l111 -22l80 -39q35 -16 76 -21l69 13q37 14 121 75v3v-125l-8 -43l-31 -39l-88 -47l-82 -15l-110 21q-63 28 -80 39l-74 20l-72 -12z" />
<glyph unicode="&#xd6;" horiz-adv-x="1556" d="M94 760q0 406 169 599.5t519 193t517 -195t163 -597.5q4 -403 -163 -599t-518 -196t-519 195t-168 600zM397 764.5q0 -396.5 167 -500.5q85 -53 219 -55t219 50t123 171t38 329t-39 327.5t-125 175.5q-90 53 -222 53t-216 -52q-164 -102 -164 -498.5zM430 1696v239h268 v-239h-268zM854 1696v239h268v-239h-268z" />
<glyph unicode="&#xd7;" horiz-adv-x="985" d="M94 807l158 158l248 -246l239 242l148 -152l-240 -242l244 -245l-156 -158v2v-2l-248 246l-237 -242l-152 147l242 244z" />
<glyph unicode="&#xd8;" horiz-adv-x="1556" d="M94 760q0 406 169 599.5t519 193t517 -195t163 -597.5q4 -403 -163 -599t-518 -196t-519 195t-168 600zM391 762q0 -137 14.5 -219t47.5 -150l589 832q-45 45 -112 67l-152 21q-131 2 -217 -50t-128 -173t-42 -328zM530 287q49 -43 109 -58l139 -18q279 -8 352 221 q39 117 39 330l-12 199q-17 93 -41 149v2v-2z" />
<glyph unicode="&#xd9;" horiz-adv-x="1495" d="M119 586v938h205q53 4 69 -17q16 -20 15 -67v-815q-4 -145 22.5 -234.5t99.5 -132.5q74 -43 215 -43l170 21q70 18 104 35t44 34l6 49v1170h207q51 2 67 -17.5t17 -66.5v-1440h-141l-62 10l-37 29l-24 27l-31 10l-25 -6l-32 -19q-53 -29 -138 -53l-204 -25 q-205 0 -325 69q-226 130 -222 544zM285 1946h272l53 -7q25 -6 58 -32l270 -242h-205l-57 8q-25 8 -60 33z" />
<glyph unicode="&#xda;" horiz-adv-x="1495" d="M119 586v938h205q53 4 69 -17q16 -20 15 -67v-815q-4 -145 22.5 -234.5t99.5 -132.5q74 -43 215 -43l170 21q70 18 104 35t44 34l6 49v1170h207q51 2 67 -17.5t17 -66.5v-1440h-141l-62 10l-37 29l-24 27l-31 10l-25 -6l-32 -19q-53 -29 -138 -53l-204 -25 q-205 0 -325 69q-226 130 -222 544zM522 1665l271 242l57 32l57 7h271l-334 -240q-16 -10 -29.5 -19.5t-28.5 -13.5l-57 -8h-207z" />
<glyph unicode="&#xdb;" horiz-adv-x="1495" d="M119 586v938h205q53 4 69 -17q16 -20 15 -67v-815q-4 -145 22.5 -234.5t99.5 -132.5q74 -43 215 -43l170 21q70 18 104 35t44 34l6 49v1170h207q51 2 67 -17.5t17 -66.5v-1440h-141l-62 10l-37 29l-24 27l-31 10l-25 -6l-32 -19q-53 -29 -138 -53l-204 -25 q-205 0 -325 69q-226 130 -222 544zM317 1665l334 281h119l53 -7l58 -34l280 -240h-221l-59 8q-29 10 -56 33l-92 74l-92 -74l-57 -33l-62 -8h-205z" />
<glyph unicode="&#xdc;" horiz-adv-x="1495" d="M119 586v938h205q53 4 69 -17q16 -20 15 -67v-815q-4 -145 22.5 -234.5t99.5 -132.5q74 -43 215 -43l170 21q70 18 104 35t44 34l6 49v1170h207q51 2 67 -17.5t17 -66.5v-1440h-141l-62 10l-37 29l-24 27l-29 10l-25 -6l-34 -19q-61 -31 -138 -53l-204 -25 q-392 0 -496 275q-53 139 -51 338zM387 1696v239h268v-239h-268zM811 1696v239h268v-239h-268z" />
<glyph unicode="&#xdd;" horiz-adv-x="1298" d="M-23 1524h250l64 -15l41 -55l323 -698l320 696q16 41 41 57l63 15h240l-524 -1047v-477h-205q-53 -4 -70 16q-16 20 -14 68v385zM418 1665l270 242q33 27 57 32l54 7h272v2v-2l-332 -240l-59 -33l-57 -8h-205z" />
<glyph unicode="&#xde;" horiz-adv-x="1304" d="M139 84v1440h209q51 2 68 -17q16 -20 14 -67v-160h57l70 2h64q227 2 367 -45t200 -154q59 -109 59 -297t-58 -302t-196.5 -160.5t-371.5 -44.5h-191v-279h-207q-53 -4 -69 16t-15 68zM430 504h217l189 22q68 25 96.5 85t23.5 169q2 106 -24 168q-29 59 -96 84l-189 23 l-143 -2l-74 -4v-545z" />
<glyph unicode="&#xdf;" horiz-adv-x="1314" d="M43 868v211h152v64q-2 113 36 205q41 92 148 143q106 51 309 55q233 0 352 -95t123 -308q0 -109 -27.5 -176.5t-105.5 -120.5l-24 -21l-9 -20q0 -18 19 -27l47 -28l72 -64q69 -82 69 -268q4 -136 -32 -235t-133 -146t-273 -47l-107 10l-86 16v2l21 199l33 -4l106 -8 q86 0 128 22.5t54 72.5t11.5 127t-16 129t-33.5 71l-43 35l-70 6h-127v223h133q43 0 61 12l29 35l31 76l12 100q0 109 -51 160t-162 51q-199 0 -217 -127q-11 -78 -8 -125v-1073h-189q-51 -2 -67 17t-14 67v784h-152z" />
<glyph unicode="&#xe0;" d="M70 537q2 195 63 322.5t160 184.5q98 61 213 62l145 -25q66 -23 103 -47l26 -18q6 -4 12.5 -5t10.5 -3l18 10l17 24l26 27l56 10h137v-1079h-137l-56 10q-16 10 -26 27l-17 24l-18 9l-23 -7l-26 -18q-44 -26 -103 -47l-145 -25q-119 0 -219 60q-209 123 -217 504z M154 1501h272l55 -6l56 -35l272 -239h-205l-57 10q-27 8 -58 31zM354 539q0 -318 242 -318q84 4 123 23l55 37l10 12l2 14v479q-26 28 -73 48l-111 22q-68 0 -123 -31q-117 -58 -125 -286z" />
<glyph unicode="&#xe1;" d="M70 537q2 195 63 322.5t160 184.5q98 61 213 62l145 -25q66 -23 103 -47l26 -18q6 -4 12.5 -5t10.5 -3l18 10l17 24l26 27l56 10h137v-1079h-137l-56 10q-16 10 -26 27l-17 24l-18 9l-23 -7l-26 -18q-44 -26 -103 -47l-145 -25q-119 0 -219 60q-209 123 -217 504z M348 1221l270 239q37 29 58 35l55 6h273l-334 -239q-16 -10 -29.5 -19.5t-28.5 -13.5l-57 -8h-207zM354 539q0 -318 242 -318q84 4 123 23l55 37l10 12l2 14v479q-26 28 -73 48l-111 22q-68 0 -123 -31q-117 -58 -125 -286z" />
<glyph unicode="&#xe2;" d="M70 537q2 195 63 322.5t160 184.5q98 61 213 62l145 -25q66 -23 103 -47l26 -18q6 -4 12.5 -5t10.5 -3l18 10l17 24l26 27l56 10h137v-1079h-137l-56 10q-16 10 -26 27l-17 24l-18 9l-23 -7l-26 -18q-44 -26 -103 -47l-145 -25q-119 0 -219 60q-209 123 -217 504z M168 1221l334 280h116l56 -8l57 -35l283 -237h-223l-60 8q-33 10 -57 33l-90 73l-92 -73q-29 -23 -60 -33l-59 -8h-205zM354 539q0 -318 242 -318q84 4 123 23l55 37l10 12l2 14v479q-26 28 -73 48l-111 22q-68 0 -123 -31q-117 -58 -125 -286z" />
<glyph unicode="&#xe3;" d="M70 537q2 195 63 322.5t160 184.5q98 61 213 62l145 -25q66 -23 103 -47l26 -18q6 -4 12.5 -5t10.5 -3l18 10l17 24l26 27l56 10h137v-1079h-137l-56 10q-16 10 -26 27l-17 24l-18 9l-23 -7l-26 -18q-44 -26 -103 -47l-145 -25q-119 0 -219 60q-209 123 -217 504z M246 1221v122l8 46l31 36l88 50l82 14l112 -23l82 -39l76 -20l68 12q33 13 122 76v-123l-8 -43l-33 -39l-86 -47l-83 -14q-66 4 -109 20l-80 39q-35 16 -76 21l-69 -13zM354 539q0 -318 242 -318q84 4 123 23l55 37l10 12l2 14v479q-26 28 -73 48l-111 22q-68 0 -123 -31 q-117 -58 -125 -286z" />
<glyph unicode="&#xe4;" d="M70 537q2 195 63 322.5t159.5 186.5t213.5 60l145 -25q66 -23 103 -47l26 -18q6 -4 12.5 -5t10.5 -3l18 10l17 24l26 27l56 10h137v-1079h-137l-56 10q-16 10 -26 27l-19 24l-16 9l-23 -7l-26 -18q-44 -26 -103 -47l-145 -25q-119 0 -219 60q-209 123 -217 504zM250 1245 v240h268v-240h-268zM354 539q0 -318 242 -318q84 4 123 23l55 37l10 12l2 14v479q-26 28 -73 48l-111 22q-68 0 -123 -31q-117 -58 -125 -286zM674 1245v240h268v-240h-268z" />
<glyph unicode="&#xe5;" d="M70 537q2 195 63 322.5t160 184.5q98 61 213 62l145 -25q66 -23 103 -47l26 -18q6 -4 12.5 -5t10.5 -3l18 10l17 24l26 27l56 10h137v-1079h-137l-56 10q-16 10 -26 27l-17 24l-18 9l-23 -7l-26 -18q-44 -26 -103 -47l-145 -25q-119 0 -219 60q-209 123 -217 504z M346 1389q4 121 84 185.5t225 63.5q145 0 226.5 -65t81.5 -183t-81 -186t-227 -67q-145 0 -225 66.5t-84 185.5zM354 539q0 -318 242 -318q84 4 123 23l55 37l10 12l2 14v479q-26 28 -73 48l-111 22q-68 0 -123 -31q-117 -58 -125 -286zM524 1389q8 -115 131 -113 q125 0 129 113q0 112 -129 110q-55 0 -92 -24q-35 -25 -39 -86z" />
<glyph unicode="&#xe6;" horiz-adv-x="1789" d="M70 537q8 387 243 507q113 61 256 62q145 -4 216 -36t108 -64l25 -23l20 -8l25 10l26 23l45 32q33 25 99 43l151 23q217 -4 324 -104t106 -275q-7 -240 -239 -307q-115 -31 -258 -31l-72 4l-70 8l-33 2q15 -166 148 -196l156 -14l124 8l107 18l63 14l29 -213l-158 -30 l-215 -17l-206 27q-76 23 -119 53l-49 39l-21 19l-20 6l-17 -4l-22 -17q-49 -63 -166 -100l-156 -23q-123 0 -225 60q-221 128 -225 504zM357.5 552q-3.5 -173 50.5 -259q55 -84 186 -84l96 14l72 29l41 27l-6 16l-6 18l-9 62l-8 139v252l-4 33l-18 24q-29 23 -70 37l-92 14 q-111 2 -172 -73q-57 -76 -60.5 -249zM1038 582l52 -9l108 -8q129 0 196 34t66 122v2q-1 75 -47 121q-47 47 -151 47l-103 -19q-38 -16 -69 -41l-37 -45l-11 -32l-4 -35v-137z" />
<glyph unicode="&#xe7;" horiz-adv-x="966" d="M68 535q4 381 254 507q119 59 266 60l133 -15l119 -28l82 -29l-62 -162l-22 -47q-16 -16 -39 -16l-35 6l-86 41l-84 10q-113 2 -180 -74q-66 -78 -68 -251q0 -330 266 -330l129 8l150 25v2v-2l24 -213l-172 -37l-145 -17l-6 -75q122 -21 129 -146q-2 -94 -68 -143 t-182 -49l-86 6l-78 20l21 97q2 18 14 30l37 11l33 -7l37 -4l53 8q20 8 20 33.5t-28 38.5l-86 14l24 179q-356 68 -364 549z" />
<glyph unicode="&#xe8;" horiz-adv-x="1114" d="M70 541q4 268 135 414t373 151q280 0 401 -174q57 -84 57 -193.5t-26.5 -168t-69.5 -93.5q-61 -45 -164 -67l-223 -21l-88 4l-76 8l-33 2q18 -119 96.5 -164.5t215.5 -43.5l133 10l119 20l49 11l26 -209l-184 -37l-184 -17q-281 0 -419 138.5t-138 429.5zM117 1501h272 l53 -6l58 -35l272 -239h-205l-59 10q-27 8 -57 31zM348 588l86 -8l98 -7l134 15q53 16 75 41l23 41l8 51q4 74 -43 121t-145 49v2v-2q-84 0 -135 -43t-75 -114t-26 -146z" />
<glyph unicode="&#xe9;" horiz-adv-x="1114" d="M70 541q4 268 135 414t373 151q280 0 401 -174q57 -84 57 -193.5t-26.5 -168t-69.5 -93.5q-61 -45 -164 -67l-223 -21l-88 4l-76 8l-33 2q18 -119 96.5 -164.5t215.5 -43.5l133 10l119 20l49 11l26 -209l-184 -37l-184 -17q-281 0 -419 138.5t-138 429.5zM348 588l86 -8 l98 -7l134 15q53 16 75 41l23 41l8 51q4 74 -43 121t-145 49v2v-2q-84 0 -135 -43t-75 -114t-26 -146zM371 1221l272 239q33 29 55 35l56 6h272l-334 -239l-57 -33l-57 -8h-207z" />
<glyph unicode="&#xea;" horiz-adv-x="1114" d="M70 541q4 268 135 414t373 151q280 0 401 -174q57 -84 57 -193.5t-26.5 -168t-69.5 -93.5q-61 -45 -164 -67l-223 -21l-88 4l-76 8l-33 2q18 -119 96.5 -164.5t215.5 -43.5l133 10l119 20l49 11l26 -209l-184 -37l-184 -17q-281 0 -419 138.5t-138 429.5zM160 1221 l334 280h116l58 -8q20 -6 55 -35l281 -237h-222l-59 8q-33 10 -57 33l-93 73l-92 -73q-25 -23 -57 -33l-59 -8h-205zM348 588l86 -8l98 -7l134 15q53 16 75 41l23 41l8 51q4 74 -43 121t-145 49v2v-2q-84 0 -135 -43t-75 -114t-26 -146z" />
<glyph unicode="&#xeb;" horiz-adv-x="1114" d="M70 541q4 268 135 414t373 151q280 0 401 -174q57 -84 57 -193.5t-26.5 -168t-69.5 -93.5q-66 -47 -164 -67l-223 -21l-88 4l-76 8l-31 2q16 -119 94.5 -164.5t215.5 -43.5l133 10l117 20l51 11l26 -209l-184 -37l-184 -17q-281 0 -419 138.5t-138 429.5zM244 1245v240 h268v-240h-268zM348 588l86 -8l98 -7l134 15q53 16 75 41l23 41l8 51q4 74 -43 121t-145 49v2v-2q-84 0 -135 -43t-75 -114t-26 -146zM668 1245v240h268v-240h-268z" />
<glyph unicode="&#xec;" horiz-adv-x="501" d="M-248 1501h273l53 -6q20 -6 57 -35l271 -239h-203l-60 8l-59 33zM117 90v989h188q51 2 68 -18q16 -25 14 -74v-987h-184q-53 -4 -72 18q-16 25 -14 72z" />
<glyph unicode="&#xed;" horiz-adv-x="501" d="M106 1221l271 239q33 29 55 35l55 6h273l-334 -239l-57 -33l-58 -8h-205zM117 90v989h188q51 2 68 -18q16 -25 14 -74v-987h-184q-53 -4 -72 18q-16 25 -14 72z" />
<glyph unicode="&#xee;" horiz-adv-x="501" d="M-162 1221l332 280h119l55 -8q20 -6 55 -35l281 -237h-219l-62 8l-57 33l-92 73l-92 -73l-56 -33l-59 -8h-205zM117 90v989h188q51 2 68 -18q16 -25 14 -74v-987h-184q-53 -4 -72 18q-16 25 -14 72z" />
<glyph unicode="&#xef;" horiz-adv-x="501" d="M-94 1245v240h268v-240h-268zM117 90v989h188q51 2 68 -18q16 -25 14 -74v-987h-184q-53 -4 -72 18q-16 25 -14 72zM330 1245v240h268v-240h-268z" />
<glyph unicode="&#xf0;" horiz-adv-x="1214" d="M74 541q8 347 237 465q115 59 269 59l77 -8l52 -15l-72 109l-84 102l-127 -90l-111 127l113 84l-45 47l-33 31l182 139l86 -80l132 97l114 -140l-119 -90q391 -391 394 -837q0 -270 -133 -420q-131 -143 -398 -148q-266 2 -401 148q-133 150 -133 420zM356 526 q0 -78 21 -149.5t74 -115.5t159 -48v2v-2q135 -4 195 72q63 72 59 241q0 132 -38 196q-13 23 -34.5 51t-70.5 48l-111 17q-129 2 -190 -74q-63 -72 -64 -238z" />
<glyph unicode="&#xf1;" horiz-adv-x="1144" d="M111 90v989h137l55 -10l27 -27l16 -24l19 -8l22 6l27 18q45 27 102 47l148 25q115 0 202 -39q179 -81 181 -358v-709h-183q-55 -4 -72 18.5t-16 71.5v576q2 106 -43 149q-47 43 -149 41l-129 -22l-62 -35l-12 -15v-784h-184q-55 -4 -72 18q-16 25 -14 72zM281 1221v122 q-2 23 8 46l30 36q39 33 87 50l83 14l111 -23l82 -39q35 -16 76 -20l67 12q36 14 123 76v-123l-8 -43l-31 -39q-39 -31 -88 -47l-82 -14l-110 20q-45 20 -78 37.5t-76 22.5l-72 -13z" />
<glyph unicode="&#xf2;" horiz-adv-x="1193" d="M68 541q4 178 68 305q131 258 462 262q331 -8 463 -264q66 -127 65 -303q-2 -272 -141 -418.5t-387 -149.5q-252 4 -390 149.5t-140 418.5zM152 1501h272l55 -6q23 -6 56 -35l272 -239v2v-2h-205l-59 8q-14 4 -27.5 13t-30.5 20zM344.5 538.5q-0.5 -159.5 61.5 -241.5 q59 -84 192 -84t196.5 84t59.5 244q4 158 -61 243q-61 84 -195 84q-133 0 -193 -85t-60.5 -244.5z" />
<glyph unicode="&#xf3;" horiz-adv-x="1193" d="M68 541q4 178 68 305q131 258 462 262q331 -8 463 -264q66 -127 65 -303q-2 -272 -141 -418.5t-387 -149.5q-252 4 -390 149.5t-140 418.5zM344.5 538.5q-0.5 -159.5 61.5 -241.5q59 -84 192 -84t195 84q66 84 61 244v2q4 157 -61 241q-61 84 -195 84q-133 0 -193 -85 t-60.5 -244.5zM381 1221l270 239q33 29 56 35l55 6h272l-334 -239l-57 -33l-57 -8h-205z" />
<glyph unicode="&#xf4;" horiz-adv-x="1193" d="M68 541q4 178 68 305q131 258 462 262q331 -8 463 -264q66 -127 65 -303q-2 -272 -141 -418.5t-387 -149.5q-252 4 -390 149.5t-140 418.5zM180 1221l334 280h119l55 -8q20 -6 57 -35l281 -237h-221l-62 8q-29 10 -55 33l-92 73l-92 -73q-25 -23 -58 -33l-59 -8h-207z M344.5 538.5q-0.5 -159.5 61.5 -241.5q59 -84 192 -84t195 84q66 84 61 244v2q4 157 -61 241q-61 84 -195 84q-133 0 -193 -85t-60.5 -244.5z" />
<glyph unicode="&#xf5;" horiz-adv-x="1193" d="M68 541q4 178 68 305q131 258 462 262q331 -8 463 -264q66 -127 65 -303q-2 -272 -141 -418.5t-387 -149.5q-252 4 -390 149.5t-140 418.5zM270 1221v122q0 25 11 46l30 36q39 33 88 50l84 14l111 -23l80 -39q35 -16 76 -20l69 12l121 76v-123l-8 -43q-8 -16 -31 -39 q-37 -31 -86 -47l-84 -14l-110 20q-45 20 -80 39l-74 21l-72 -13q-39 -14 -125 -75zM344.5 538.5q-0.5 -159.5 61.5 -241.5q59 -84 192 -84t195 84q66 84 61 244v2q4 157 -61 241q-61 84 -195 84q-133 0 -193 -85t-60.5 -244.5z" />
<glyph unicode="&#xf6;" horiz-adv-x="1193" d="M68 541q4 178 68 305q131 258 462 262q331 -8 463 -264q66 -127 65 -303q-2 -272 -141 -418.5t-387 -149.5q-252 4 -390 149.5t-140 418.5zM258 1245v240h268v-240h-268zM344.5 538.5q-0.5 -159.5 61.5 -241.5q59 -84 192 -84t195 84q66 84 61 244v2q4 157 -61 241 q-61 84 -195 84q-133 0 -193 -85t-60.5 -244.5zM682 1245v240h268v-240h-268z" />
<glyph unicode="&#xf7;" horiz-adv-x="1024" d="M74 444v218h876v-218h-876zM362 66v241h295v-241h-295zM362 801v239h295v-239h-295z" />
<glyph unicode="&#xf8;" horiz-adv-x="1193" d="M68 541q4 178 68 305q131 258 462 262q331 -8 463 -264q66 -127 65 -303q-2 -272 -141 -418.5t-387 -149.5q-252 4 -390 149.5t-140 418.5zM344 541q0 -115 16.5 -156t26.5 -61l361 503l-66 31l-84 10q-133 0 -193 -85t-61 -242zM455 250q31 -20 63 -29l80 -8 q133 0 195 84q66 84 61 244v2l-10 116l-31 93z" />
<glyph unicode="&#xf9;" horiz-adv-x="1134" d="M98 371v708h187q53 4 69 -19.5t15 -72.5v-571q0 -109 43 -154q57 -60 216 -34q31 5 54 16l59 37l13 16l2 14v768h184q55 4 72 -18q16 -25 14 -74v-987h-139l-53 10l-29 27l-17 24l-16 9l-22 -7l-29 -18q-33 -23 -100 -47l-148 -25q-239 0 -326 162q-47 86 -49 236z M106 1501h273l55 -6q20 -6 58 -35l270 -239h-205l-57 10q-27 8 -58 31z" />
<glyph unicode="&#xfa;" horiz-adv-x="1140" d="M98 371v708h187q53 4 69 -19.5t15 -72.5v-571q0 -109 43 -154q57 -60 216 -34q31 5 54 16l59 37l13 16l2 14v768h184q55 4 72 -18q16 -25 14 -74v-987h-139l-53 10l-29 27l-17 24l-16 9l-22 -7l-29 -18q-33 -23 -100 -47l-148 -25q-239 0 -326 162q-47 86 -49 236z M377 1221l272 239l56 35l55 6h272l-334 -239l-57 -33l-57 -8h-207z" />
<glyph unicode="&#xfb;" horiz-adv-x="1134" d="M98 371v708h187q53 4 69 -19.5t15 -72.5v-571q0 -109 43 -154q57 -60 216 -34q31 5 54 16l59 37l13 16l2 14v768h184q55 4 72 -18q16 -25 14 -74v-987h-139l-53 10l-29 27l-17 24l-16 9l-22 -7l-29 -18q-33 -23 -100 -47l-148 -25q-239 0 -326 162q-47 86 -49 236z M145 1221l334 280h119l53 -8l58 -35l280 -237h-221l-59 8q-29 10 -56 33l-94 73l-92 -73l-57 -33l-60 -8h-205z" />
<glyph unicode="&#xfc;" horiz-adv-x="1134" d="M98 371v708h187q53 4 69 -19.5t15 -72.5v-571q0 -109 43 -154q57 -60 216 -34q31 5 54 16l59 37l13 16l2 14v768h184q55 4 72 -18q16 -25 14 -74v-987h-139l-53 10l-29 27l-17 24l-16 9l-22 -7l-29 -18q-33 -23 -100 -47l-146 -25q-241 0 -328 162q-47 86 -49 236z M207 1245v240h268v-240h-268zM629 1245v240h268v-240h-268z" />
<glyph unicode="&#xfd;" horiz-adv-x="1134" d="M98 371v708h185q53 4 71 -18q16 -25 15 -74v-571q0 -109 43 -154t145 -41v2v-2q86 4 125 23l59 37l13 16l2 14v768h184q55 4 72 -18q16 -25 14 -74v-967q-8 -350 -211 -444q-104 -47 -233 -47l-179 27q-75 27 -129 59l-77 57l-27 27l141 154l33 -27q43 -27 90 -47 l133 -25q80 -2 135 39q53 43 56 144v86l-4 26l-13 8l-14 -2q-73 -42 -125 -59l-127 -23q-241 0 -328 162q-47 86 -49 236zM365 1221l270 239q37 29 57 35l56 6h272l-334 -239q-16 -10 -29.5 -19.5t-27.5 -13.5l-58 -8h-206z" />
<glyph unicode="&#xfe;" horiz-adv-x="1157" d="M98 -285v1809h187q55 4 70 -15.5t14 -68.5v-383l4 -27l12 -8l14 2l15 8q45 29 110 51l127 23q261 0 375 -244q57 -127 61 -319q-4 -199 -65 -325t-160.5 -185t-210.5 -60l-127 23q-41 14 -125 59l-14 2q-10 0 -12 -8l-4 -26v-398h-185q-57 0 -72 20.5t-14 69.5zM369 307 l2 -14l10 -12l61 -35q43 -19 111 -23q70 0 125 31q123 63 123 287q0 317 -242 317l-123 -22q-45 -24 -65 -50l-2 -12v-467z" />
<glyph unicode="&#xff;" horiz-adv-x="1134" d="M98 371v708h185q53 4 71 -18q16 -25 15 -74v-571q0 -109 43 -154t147 -41v2v-2q84 4 123 23l59 37l13 16l2 14v768h184q55 4 72 -18q16 -25 14 -74v-967q-8 -350 -211 -444q-104 -47 -233 -47l-179 27q-75 27 -129 59l-77 57l-27 27l141 154l33 -27q43 -27 90 -47 l133 -25q80 -2 135 39q53 43 56 144v86l-4 26l-13 8l-14 -2q-73 -42 -125 -59l-127 -23q-241 0 -328 162q-47 86 -49 236zM213 1245v240h268v-240h-268zM637 1245v240h268v-240h-268z" />
<glyph unicode="&#x2c6;" horiz-adv-x="933" d="M45 1221l334 280h117l55 -8l55 -35l283 -237v2v-2h-221l-62 8q-29 10 -55 33l-90 73l-94 -73q-25 -23 -58 -33l-59 -8h-205z" />
<glyph unicode="&#x2dc;" horiz-adv-x="759" d="M47 1221v122l8 46l31 36q39 33 86 50l84 14l111 -23l82 -39q31 -16 73 -20l70 12l121 76v2v-125l-8 -43l-31 -39l-86 -47l-82 -14q-68 4 -111 20l-82 39q-31 16 -73 21l-70 -13q-27 -9 -123 -75z" />
<glyph unicode="&#x2000;" horiz-adv-x="974" />
<glyph unicode="&#x2001;" horiz-adv-x="1948" />
<glyph unicode="&#x2002;" horiz-adv-x="974" />
<glyph unicode="&#x2003;" horiz-adv-x="1948" />
<glyph unicode="&#x2004;" horiz-adv-x="649" />
<glyph unicode="&#x2005;" horiz-adv-x="487" />
<glyph unicode="&#x2006;" horiz-adv-x="324" />
<glyph unicode="&#x2007;" horiz-adv-x="324" />
<glyph unicode="&#x2008;" horiz-adv-x="243" />
<glyph unicode="&#x2009;" horiz-adv-x="389" />
<glyph unicode="&#x200a;" horiz-adv-x="108" />
<glyph unicode="&#x2010;" horiz-adv-x="847" d="M100 446v234h648v-234h-648z" />
<glyph unicode="&#x2011;" horiz-adv-x="847" d="M100 446v234h648v-234h-648z" />
<glyph unicode="&#x2012;" horiz-adv-x="847" d="M100 446v234h648v-234h-648z" />
<glyph unicode="&#x2013;" horiz-adv-x="1216" d="M119 444v236h981v-236h-981z" />
<glyph unicode="&#x2014;" horiz-adv-x="2074" d="M119 444v236h1841v-236h-1841z" />
<glyph unicode="&#x2018;" horiz-adv-x="468" d="M84 965v155q6 165 72 272q22 35 45 64l96 92l111 -106l-43 -47q-58 -81 -66 -160h96v-270h-311z" />
<glyph unicode="&#x2019;" horiz-adv-x="468" d="M63 1047l43 47l44 75q16 37 20 84h-96v271h313v-154q-4 -124 -35 -196q-30 -76 -82 -142l-96 -90v2v-2z" />
<glyph unicode="&#x201a;" horiz-adv-x="468" d="M63 -209l43 49l44 74q16 37 20 86h-96v270h313v-155q-7 -202 -117 -336l-96 -92v2v-2z" />
<glyph unicode="&#x201c;" horiz-adv-x="909" d="M84 965v155q6 165 72 272q22 35 45 64l96 92l111 -106l-43 -47q-58 -81 -66 -160h96v-270h-311zM524 965v155q6 165 72 272q62 100 141 156l111 -106l-43 -47q-58 -81 -66 -160h97v-270h-312z" />
<glyph unicode="&#x201d;" horiz-adv-x="909" d="M63 1047l43 47l44 75q16 37 20 84h-96v271h313v-154q-4 -124 -35 -196q-30 -76 -82 -142l-96 -90zM504 1047l43 47l43 75q18 35 22 84h-96v271h311v-154q-6 -165 -72 -273q-22 -36 -44 -65l-97 -90v2v-2z" />
<glyph unicode="&#x201e;" horiz-adv-x="909" d="M63 -209l43 49l44 74q16 37 20 86h-96v270h313v-155q-7 -202 -117 -336l-96 -92zM504 -209l43 49l43 74l22 86h-96v270h311v-155q-7 -197 -116 -336l-97 -92v2v-2z" />
<glyph unicode="&#x2022;" horiz-adv-x="817" d="M174 764q8 161 121 215q51 27 115 27q63 0 115 -26t83 -81q31 -49 35 -135q-7 -156 -119 -217q-51 -27 -114 -27v2v-2q-134 0 -201 107q-31 51 -35 137z" />
<glyph unicode="&#x2026;" horiz-adv-x="1560" d="M104 0v270h312v-270h-312zM625 0v270h311v-270h-311zM1145 0v270h311v-270h-311z" />
<glyph unicode="&#x202f;" horiz-adv-x="389" />
<glyph unicode="&#x2039;" horiz-adv-x="772" d="M63 739l293 416l54 45l67 12h199l-334 -460l346 -488v2v-2h-217q-41 -4 -66 9t-55 51z" />
<glyph unicode="&#x203a;" horiz-adv-x="772" d="M74 1212h219l65 -12l54 -49l284 -416l-293 -416l-51 -43l-69 -12v2v-2h-197l334 461z" />
<glyph unicode="&#x205f;" horiz-adv-x="487" />
<glyph unicode="&#x20ac;" horiz-adv-x="1325" d="M63 522v189h138l-2 55v39l2 37h-138v188h160q55 276 213 401.5t398 124.5l221 -22l159 -41l66 -23l-82 -219l-18 -28q-10 -10 -25 -9l-27 7q-23 11 -55 33t-96 38l-139 19q-111 2 -192 -61.5t-120 -219.5h449v-188h-475l-2 -37v-94h477v-189h-457q34 -221 178 -274 q72 -27 181 -27l186 15l168 28v2v-2l37 -223l-90 -23l-150 -30l-184 -15q-477 0 -590 371q-25 80 -39 178h-152z" />
<glyph unicode="&#x2122;" horiz-adv-x="1753" d="M84 1370v154h637v-154h-236v-598h-108q-29 0 -43 12q-12 12 -12 43v543h-238zM766 772l92 752h156l39 -8l18 -37l135 -475l152 520h147l43 -13l15 -41l86 -696v-2h-111q-31 0 -42 10t-15 39l-49 482l-156 -525h-102q-29 0 -41 15l-23 49l-135 456l-45 -475 q-4 -51 -56 -51h-108z" />
<glyph unicode="&#xe000;" horiz-adv-x="1075" d="M0 0v1075h1075v-1075h-1075z" />
</font>
</defs>
</svg>
